# SSTK version 0.8.0
# 41
mtllib original-41.mtl
o DF_21_CR1/DF_21_CR/mesh28/mesh28-geometry#mesh28-geometry
v 0.361498 -0.234403 0.563512
v 0.359719 -0.418467 0.563018
v 0.361498 -0.418467 0.563512
v 0.359719 -0.234403 0.563018
v 0.361498 -0.234403 0.566181
v 0.356753 -0.418467 0.561139
v 0.361498 -0.418467 0.566181
v 0.356753 -0.234403 0.561139
v 0.437324 -0.234403 0.566181
v 0.355567 -0.418467 0.559854
v 0.437324 -0.418467 0.566181
v 0.355567 -0.234403 0.559854
v 0.437719 -0.234403 0.566082
v 0.353787 -0.418467 0.556691
v 0.437719 -0.418467 0.566082
v 0.353787 -0.234403 0.556691
v 0.438016 -0.234403 0.565983
v 0.353293 -0.418467 0.555010
v 0.438016 -0.418467 0.565983
v 0.353293 -0.234403 0.555010
v 0.438312 -0.418467 0.565588
v 0.353194 -0.418467 0.549315
v 0.438312 -0.234403 0.565588
v 0.353194 -0.234403 0.549315
v 0.438411 -0.418467 0.565094
v 0.347855 -0.418467 0.549671
v 0.438411 -0.234403 0.565094
v 0.347855 -0.234403 0.549671
v 0.438411 -0.418467 0.562029
v 0.336487 -0.418467 0.554318
v 0.438411 -0.234403 0.562029
v 0.336487 -0.234403 0.554318
v 0.442761 -0.234403 0.560843
v 0.299810 -0.418467 0.557086
v 0.442761 -0.418467 0.560843
v 0.299810 -0.234403 0.557086
v 0.446320 -0.234403 0.557976
v 0.299019 -0.418467 0.557481
v 0.446320 -0.418467 0.557976
v 0.299019 -0.234403 0.557481
v 0.447605 -0.418467 0.556196
v 0.297437 -0.418467 0.558668
v 0.447605 -0.234403 0.556196
v 0.297437 -0.234403 0.558668
v 0.449484 -0.418467 0.552044
v 0.296349 -0.234403 0.561238
v 0.449484 -0.234403 0.552044
v 0.296349 -0.418467 0.561238
v 0.449484 -0.418467 0.537413
v 0.296349 -0.234403 0.564105
v 0.449484 -0.234403 0.537413
v 0.296349 -0.418467 0.564105
v 0.449088 -0.418467 0.535831
v 0.295460 -0.234403 0.565588
v 0.449088 -0.234403 0.535831
v 0.295460 -0.418467 0.565588
v 0.448198 -0.418467 0.534447
v 0.295064 -0.418467 0.565885
v 0.448198 -0.234403 0.534447
v 0.295064 -0.234403 0.565885
v 0.447605 -0.234403 0.533953
v 0.294076 -0.418467 0.566181
v 0.447605 -0.418467 0.533953
v 0.294076 -0.234403 0.566181
v 0.446913 -0.418467 0.533557
v 0.290368 -0.234403 0.566181
v 0.446913 -0.234403 0.533557
v 0.290368 -0.418467 0.566181
v 0.445331 -0.234403 0.533261
v 0.445331 -0.418467 0.533261
v 0.353490 -0.234403 0.533261
v 0.353490 -0.418467 0.533261
v 0.290368 -0.234403 0.533261
v 0.290368 -0.418467 0.533261
vt 2.627664 0.037475
vt 2.62682 -0.07072
vt 2.627664 -0.07072
vt 2.62682 0.037475
vt 2.625412 -0.07072
vt 2.625412 0.037475
vt 2.663653 0.037475
vt 2.624849 -0.07072
vt 2.663653 -0.07072
vt 2.624849 0.037475
vt 2.663841 0.037475
vt 2.624004 -0.07072
vt 2.663841 -0.07072
vt 2.624004 0.037475
vt 2.663982 0.037475
vt 2.62377 -0.07072
vt 2.663982 -0.07072
vt 2.62377 0.037475
vt 2.664122 -0.07072
vt 2.623723 -0.07072
vt 2.664122 0.037475
vt 2.623723 0.037475
vt 2.664169 -0.07072
vt 2.621189 -0.07072
vt 2.664169 0.037475
vt 2.621189 0.037475
vt 2.615793 -0.07072
vt 2.615793 0.037475
vt 2.666234 0.037475
vt 2.598385 -0.07072
vt 2.666234 -0.07072
vt 2.598385 0.037475
vt 2.667923 0.037475
vt 2.598009 -0.07072
vt 2.667923 -0.07072
vt 2.598009 0.037475
vt 2.668533 -0.07072
vt 2.597259 -0.07072
vt 2.668533 0.037475
vt 2.597259 0.037475
vt 2.669425 -0.07072
vt 2.596743 0.037475
vt 2.669425 0.037475
vt 2.596743 -0.07072
vt 2.669237 -0.07072
vt 2.59632 0.037475
vt 2.669237 0.037475
vt 2.59632 -0.07072
vt 2.668815 -0.07072
vt 2.596133 -0.07072
vt 2.668815 0.037475
vt 2.596133 0.037475
vt 2.595663 -0.07072
vt 2.595663 0.037475
vt 2.668205 -0.07072
vt 2.593904 0.037475
vt 2.668205 0.037475
vt 2.593904 -0.07072
vt 2.667454 0.037475
vt 2.667454 -0.07072
vt 2.623863 0.037475
vt 2.623863 -0.07072
vn -0.2676439669379428 0 0.9635178809766434
vn -0.40571198885407755 0 0.9140009748901086
vn -1 0 0
vn -0.6403648737629639 0 0.7680708485879044
vn 0 0 1
vn 0.12218295017667438 0 0.992507595278809
vn -0.8086723822332434 0 0.588259278051108
vn 0.27958801899185565 0 0.960120065219038
vn -0.921364317642246 0 0.3887001340051717
vn 0.5847101851590343 0 0.8112422568945038
vn -0.9885149672040394 0 0.15112299498619247
vn 0.912905948084866 0 0.40816997678819045
vn -0.9998493558214528 0 0.017357006176925673
vn 0.9951332860346846 0 0.09853802832313445
vn 0.06662998353626613 0 0.9977777534571298
vn 0.22537691862621329 0 0.9742716482329522
vn 1 0 0
vn 0.2295879792581045 0 0.9732879120692808
vn 0.2631169827151882 0 0.9647639366222471
vn 0.45483409566708477 0 0.8905761873184715
vn 0.26623808289417183 0 0.9639073001159584
vn 0.7254689220171735 0 0.6882549260174172
vn 0.5257309452814002 0 0.8506509114634071
vn 0.8652444317415047 0 0.5013502501648128
vn 0.7876763399229795 0 0.6160892658743042
vn 0.9775244466016959 0 0.21082209631831317
vn 0.9800427289113983 0 0.19878694501374952
vn 0.992507595278809 0 -0.12218295017667438
vn 0.9637148257695305 0 0.26693395174088175
vn 0.9178535405378769 0 -0.39691923375175936
vn 0.7425967651426711 0 0.6697387881850956
vn 0.7493622725266221 0 -0.6621602408131558
vn 0.45063711409727597 0 0.8927072260254638
vn 0.5703581035257088 0 -0.8213961490916286
vn 0.2873480690526228 0 0.957826230175249
vn 0.3450079171870695 0 -0.9385997747060459
vn 0.09254098846189773 0 -0.9957088758540293
vn 0 0 -1
vn 0.2676439669379428 0 -0.9635178809766434
vn 0.40571198885407755 0 -0.9140009748901086
vn 0.6403648737629639 0 -0.7680708485879044
vn -0.12218295017667438 0 -0.992507595278809
vn 0.8086723822332434 0 -0.588259278051108
vn -0.27958801899185565 0 -0.960120065219038
vn 0.921364317642246 0 -0.3887001340051717
vn -0.5847101851590343 0 -0.8112422568945038
vn 0.9885149672040394 0 -0.15112299498619247
vn -0.912905948084866 0 -0.40816997678819045
vn 0.9998493558214528 0 -0.017357006176925673
vn -0.9951332860346846 0 -0.09853802832313445
vn -0.06662998353626613 0 -0.9977777534571298
vn -0.22537691862621329 0 -0.9742716482329522
vn -0.2295879792581045 0 -0.9732879120692808
vn -0.2631169827151882 0 -0.9647639366222471
vn -0.45483409566708477 0 -0.8905761873184715
vn -0.26623808289417183 0 -0.9639073001159584
vn -0.7254689220171735 0 -0.6882549260174172
vn -0.5257309452814002 0 -0.8506509114634071
vn -0.8652444317415047 0 -0.5013502501648128
vn -0.7876763399229795 0 -0.6160892658743042
vn -0.9775244466016959 0 -0.21082209631831317
vn -0.9800427289113983 0 -0.19878694501374952
vn -0.992507595278809 0 0.12218295017667438
vn -0.9637148257695305 0 -0.26693395174088175
vn -0.9178535405378769 0 0.39691923375175936
vn -0.7425967651426711 0 -0.6697387881850956
vn -0.7493622725266221 0 0.6621602408131558
vn -0.45063711409727597 0 -0.8927072260254638
vn -0.5703581035257088 0 0.8213961490916286
vn -0.2873480690526228 0 -0.957826230175249
vn -0.3450079171870695 0 0.9385997747060459
vn -0.09254098846189773 0 0.9957088758540293
usemtl material_0_0
f 1/1/1 2/2/2 3/3/1
f 2/2/2 1/1/1 4/4/2
f 3/3/3 5/1/3 1/1/3
f 4/4/2 6/5/4 2/2/2
f 5/1/3 3/3/3 7/3/3
f 6/5/4 4/4/2 8/6/4
f 7/3/5 9/7/6 5/1/5
f 8/6/4 10/8/7 6/5/4
f 9/7/6 7/3/5 11/9/6
f 10/8/7 8/6/4 12/10/7
f 11/9/6 13/11/8 9/7/6
f 12/10/7 14/12/9 10/8/7
f 13/11/8 11/9/6 15/13/8
f 14/12/9 12/10/7 16/14/9
f 15/13/8 17/15/10 13/11/8
f 16/14/9 18/16/11 14/12/9
f 17/15/10 15/13/8 19/17/10
f 18/16/11 16/14/9 20/18/11
f 21/19/12 17/15/10 19/17/10
f 20/18/11 22/20/13 18/16/11
f 17/15/10 21/19/12 23/21/12
f 22/20/13 20/18/11 24/22/13
f 25/23/14 23/21/12 21/19/12
f 24/22/15 26/24/16 22/20/15
f 23/21/12 25/23/14 27/25/14
f 26/24/16 24/22/15 28/26/16
f 29/23/17 27/25/14 25/23/14
f 28/26/16 30/27/18 26/24/16
f 27/25/14 29/23/17 31/25/17
f 30/27/18 28/26/16 32/28/18
f 29/23/19 33/29/20 31/25/19
f 32/28/18 34/30/21 30/27/18
f 33/29/20 29/23/19 35/31/20
f 34/30/21 32/28/18 36/32/21
f 35/31/20 37/33/22 33/29/20
f 36/32/21 38/34/23 34/30/21
f 37/33/22 35/31/20 39/35/22
f 38/34/23 36/32/21 40/36/23
f 41/37/24 37/33/22 39/35/22
f 40/36/23 42/38/25 38/34/23
f 37/33/22 41/37/24 43/39/24
f 42/38/25 40/36/23 44/40/25
f 45/41/26 43/39/24 41/37/24
f 46/42/27 42/38/25 44/40/25
f 43/39/24 45/41/26 47/43/26
f 42/38/25 46/42/27 48/44/27
f 49/41/28 47/43/26 45/41/26
f 50/42/29 48/44/27 46/42/27
f 47/43/26 49/41/28 51/43/28
f 48/44/27 50/42/29 52/44/29
f 53/45/30 51/43/28 49/41/28
f 54/46/31 52/44/29 50/42/29
f 51/43/28 53/45/30 55/47/30
f 52/44/29 54/46/31 56/48/31
f 57/49/32 55/47/30 53/45/30
f 54/46/31 58/50/33 56/48/31
f 55/47/30 57/49/32 59/51/32
f 58/50/33 54/46/31 60/52/33
f 57/49/32 61/39/34 59/51/32
f 60/52/33 62/53/35 58/50/33
f 61/39/34 57/49/32 63/37/34
f 62/53/35 60/52/33 64/54/35
f 65/55/36 61/39/34 63/37/34
f 66/56/5 62/53/5 64/54/5
f 61/39/34 65/55/36 67/57/36
f 62/53/5 66/56/5 68/58/5
f 65/55/36 69/59/37 67/57/36
f 69/59/37 65/55/36 70/60/37
f 70/60/37 71/61/38 69/59/37
f 71/61/38 70/60/37 72/62/38
f 72/62/38 73/56/38 71/61/38
f 73/56/38 72/62/38 74/58/38
usemtl material_1_0
f 3//39 2//40 1//39
f 4//40 1//39 2//40
f 1//17 5//17 3//17
f 2//40 6//41 4//40
f 7//17 3//17 5//17
f 8//41 4//40 6//41
f 5//38 9//42 7//38
f 6//41 10//43 8//41
f 11//42 7//38 9//42
f 12//43 8//41 10//43
f 9//42 13//44 11//42
f 10//43 14//45 12//43
f 15//44 11//42 13//44
f 16//45 12//43 14//45
f 13//44 17//46 15//44
f 14//45 18//47 16//45
f 19//46 15//44 17//46
f 20//47 16//45 18//47
f 19//46 17//46 21//48
f 18//47 22//49 20//47
f 23//48 21//48 17//46
f 24//49 20//47 22//49
f 21//48 23//48 25//50
f 22//51 26//52 24//51
f 27//50 25//50 23//48
f 28//52 24//51 26//52
f 25//50 27//50 29//3
f 26//52 30//53 28//52
f 31//3 29//3 27//50
f 32//53 28//52 30//53
f 31//54 33//55 29//54
f 30//53 34//56 32//53
f 35//55 29//54 33//55
f 36//56 32//53 34//56
f 33//55 37//57 35//55
f 34//56 38//58 36//56
f 39//57 35//55 37//57
f 40//58 36//56 38//58
f 39//57 37//57 41//59
f 38//58 42//60 40//58
f 43//59 41//59 37//57
f 44//60 40//58 42//60
f 41//59 43//59 45//61
f 44//60 42//60 46//62
f 47//61 45//61 43//59
f 48//62 46//62 42//60
f 45//61 47//61 49//63
f 46//62 48//62 50//64
f 51//63 49//63 47//61
f 52//64 50//64 48//62
f 49//63 51//63 53//65
f 50//64 52//64 54//66
f 55//65 53//65 51//63
f 56//66 54//66 52//64
f 53//65 55//65 57//67
f 56//66 58//68 54//66
f 59//67 57//67 55//65
f 60//68 54//66 58//68
f 59//67 61//69 57//67
f 58//68 62//70 60//68
f 63//69 57//67 61//69
f 64//70 60//68 62//70
f 63//69 61//69 65//71
f 64//38 62//38 66//38
f 67//71 65//71 61//69
f 68//38 66//38 62//38
f 67//71 69//72 65//71
f 70//72 65//71 69//72
f 69//72 71//5 70//72
f 72//5 70//72 71//5
f 71//5 73//5 72//5
f 74//5 72//5 73//5
