# SSTK version 0.8.0
# 65
mtllib original_65.mtl
o DF_21_BC2/DF_21_BC/mesh26/mesh26-geometry#mesh26-geometry
v 0.290369 -0.049157 0.565588
v -0.296711 -0.048861 0.565983
v -0.296711 -0.049157 0.565588
v 0.290369 -0.048861 0.565983
v 0.290369 -0.049256 0.565094
v 0.290369 -0.048564 0.566082
v -0.296711 -0.049256 0.565094
v -0.296711 -0.048564 0.566082
v 0.290369 -0.049256 0.562029
v 0.290369 -0.048169 0.566181
v -0.296711 -0.049256 0.562029
v -0.296711 -0.048169 0.566181
v -0.296711 -0.053606 0.560843
v 0.290369 0.027657 0.566181
v 0.290369 -0.053606 0.560843
v -0.296711 0.027657 0.566181
v 0.290369 -0.057165 0.557976
v -0.296711 0.027657 0.563512
v -0.296711 -0.057165 0.557976
v 0.290369 0.027657 0.563512
v 0.290369 -0.058450 0.556196
v 0.290369 0.029436 0.563018
v -0.296711 -0.058450 0.556196
v -0.296711 0.029436 0.563018
v 0.290369 -0.060329 0.552044
v 0.290369 0.032402 0.561139
v -0.296711 -0.060329 0.552044
v -0.296711 0.032402 0.561139
v 0.290369 -0.060329 0.537413
v -0.296711 0.033588 0.559854
v -0.296711 -0.060329 0.537413
v 0.290369 0.033588 0.559854
v 0.290369 -0.059933 0.535831
v -0.296711 0.035368 0.556691
v -0.296711 -0.059933 0.535831
v 0.290369 0.035368 0.556691
v 0.290369 -0.059043 0.534447
v -0.296711 0.035862 0.555010
v -0.296711 -0.059043 0.534447
v 0.290369 0.035862 0.555010
v -0.296711 -0.058450 0.533953
v -0.296711 0.035961 0.549315
v 0.290369 -0.058450 0.533953
v 0.290369 0.035961 0.549315
v 0.290369 -0.057758 0.533557
v 0.290369 0.041299 0.549671
v -0.296711 -0.057758 0.533557
v -0.296711 0.041299 0.549671
v -0.296711 -0.056176 0.533261
v 0.290369 0.052668 0.554318
v 0.290369 -0.056176 0.533261
v -0.296711 0.052668 0.554318
v 0.290369 0.097286 0.533261
v 0.290369 0.089345 0.557086
v -0.296711 0.097286 0.533261
v -0.296711 0.089345 0.557086
v 0.290369 0.090136 0.557481
v -0.296711 0.090136 0.557481
v 0.290369 0.091718 0.558668
v -0.296711 0.091718 0.558668
v -0.296711 0.092805 0.561238
v 0.290369 0.092805 0.561238
v -0.296711 0.092805 0.564105
v 0.290369 0.092805 0.564105
v -0.296711 0.093695 0.565588
v 0.290369 0.093695 0.565588
v 0.290369 0.094091 0.565885
v -0.296711 0.094091 0.565885
v 0.290369 0.095079 0.566181
v -0.296711 0.095079 0.566181
v 0.290369 0.097286 0.566181
v -0.296711 0.097286 0.566181
vt 1.300307 0.746871
vt 1.300166 0.499475
vt 1.300307 0.499475
vt 1.300166 0.746871
vt 1.300353 0.746871
vt 1.300025 0.746871
vt 1.300353 0.499475
vt 1.300025 0.499475
vt 1.299837 0.746871
vt 1.299837 0.499475
vt 1.302418 0.499475
vt 1.263848 0.746871
vt 1.302418 0.746871
vt 1.263848 0.499475
vt 1.304107 0.746871
vt 1.304107 0.499475
vt 1.304717 0.746871
vt 1.263004 0.746871
vt 1.304717 0.499475
vt 1.263004 0.499475
vt 1.305609 0.746871
vt 1.261596 0.746871
vt 1.305609 0.499475
vt 1.261596 0.499475
vt 1.261033 0.499475
vt 1.261033 0.746871
vt 1.305421 0.746871
vt 1.260188 0.499475
vt 1.305421 0.499475
vt 1.260188 0.746871
vt 1.304999 0.746871
vt 1.259954 0.499475
vt 1.304999 0.499475
vt 1.259954 0.746871
vt 1.259907 0.499475
vt 1.259907 0.746871
vt 1.304389 0.746871
vt 2.593904 -0.097293
vt 2.346508 -0.099827
vt 2.593904 -0.099827
vt 1.304389 0.499475
vt 2.346508 -0.097293
vt 1.303638 0.499475
vt 2.593904 -0.091897
vt 1.303638 0.746871
vt 2.346508 -0.091897
vt 1.2308 0.746871
vt 2.593904 -0.074489
vt 1.2308 0.499475
vt 2.346508 -0.074489
vt 2.593904 -0.074114
vt 2.346508 -0.074114
vt 2.593904 -0.073363
vt 2.346508 -0.073363
vt 2.346508 -0.072847
vt 2.593904 -0.072847
vt 2.346508 -0.072424
vt 2.593904 -0.072424
vt 2.593904 -0.072237
vt 2.346508 -0.072237
vt 2.593904 -0.071767
vt 2.346508 -0.071767
vt 2.593904 -0.07072
vt 2.346508 -0.07072
vn 0 -0.9129059480848661 0.4081699767881902
vn 0 -0.5847101851590344 0.8112422568945036
vn 0 -0.9951332860346846 0.09853802832313423
vn 0 -0.27958801899185587 0.9601200652190379
vn 0 -1 0
vn 0 -0.1221829501766746 0.992507595278809
vn 0 -0.454834095667085 0.8905761873184714
vn 0 -0.26311698271518846 0.9647639366222472
vn 0 0 1
vn 0 -0.7254689220171735 0.688254926017417
vn 0 1 0
vn 0 -0.8652444317415048 0.5013502501648126
vn 0 0.40571198885407733 0.9140009748901087
vn 0 0.26764396693794257 0.9635178809766435
vn 0 -0.9775244466016961 0.210822096318313
vn 0 0.6403648737629637 0.7680708485879045
vn 0 -0.992507595278809 -0.1221829501766746
vn 0 0.8086723822332433 0.5882592780511082
vn 0 -0.9178535405378768 -0.3969192337517596
vn 0 0.9213643176422459 0.38870013400517195
vn 0 -0.749362272526622 -0.6621602408131559
vn 0 0.9885149672040394 0.1511229949861927
vn 0 -0.5703581035257086 -0.8213961490916287
vn 0 0.9998493558214528 0.017357006176925895
vn 0 -0.3450079171870693 -0.938599774706046
vn 0 -0.22537691862621345 0.974271648232952
vn 0 -0.06662998353626635 0.9977777534571298
vn 0 -0.09254098846189751 -0.9957088758540293
vn 0 -0.22958797925810473 0.9732879120692808
vn 0 0 -1
vn 0 -0.26623808289417206 0.9639073001159583
vn 0 -0.5257309452814004 0.850650911463407
vn 0 -0.7876763399229796 0.616089265874304
vn 0 -0.9800427289113983 0.1987869450137493
vn 0 -0.9637148257695306 0.2669339517408815
vn 0 -0.7425967651426713 0.6697387881850955
vn 0 -0.4506371140972762 0.8927072260254637
vn 0 -0.287348069052623 0.9578262301752489
vn 0 0.9129059480848661 -0.4081699767881902
vn 0 0.5847101851590344 -0.8112422568945036
vn 0 0.9951332860346846 -0.09853802832313423
vn 0 0.27958801899185587 -0.9601200652190379
vn 0 0.1221829501766746 -0.992507595278809
vn 0 0.26311698271518846 -0.9647639366222472
vn 0 0.454834095667085 -0.8905761873184714
vn 0 0.7254689220171735 -0.688254926017417
vn 0 0.8652444317415048 -0.5013502501648126
vn 0 -0.26764396693794257 -0.9635178809766435
vn 0 -0.40571198885407733 -0.9140009748901087
vn 0 0.9775244466016961 -0.210822096318313
vn 0 -0.6403648737629637 -0.7680708485879045
vn 0 0.992507595278809 0.1221829501766746
vn 0 -0.8086723822332433 -0.5882592780511082
vn 0 0.9178535405378768 0.3969192337517596
vn 0 -0.9213643176422459 -0.38870013400517195
vn 0 0.749362272526622 0.6621602408131559
vn 0 -0.9885149672040394 -0.1511229949861927
vn 0 0.5703581035257086 0.8213961490916287
vn 0 -0.9998493558214528 -0.017357006176925895
vn 0 0.3450079171870693 0.938599774706046
vn 0 0.06662998353626635 -0.9977777534571298
vn 0 0.22537691862621345 -0.974271648232952
vn 0 0.09254098846189751 0.9957088758540293
vn 0 0.22958797925810473 -0.9732879120692808
vn 0 0.26623808289417206 -0.9639073001159583
vn 0 0.5257309452814004 -0.850650911463407
vn 0 0.7876763399229796 -0.616089265874304
vn 0 0.9800427289113983 -0.1987869450137493
vn 0 0.9637148257695306 -0.2669339517408815
vn 0 0.7425967651426713 -0.6697387881850955
vn 0 0.4506371140972762 -0.8927072260254637
vn 0 0.287348069052623 -0.9578262301752489
usemtl material_0_0
f 1/1/1 2/2/2 3/3/1
f 2/2/2 1/1/1 4/4/2
f 3/3/1 5/5/3 1/1/1
f 6/6/4 2/2/2 4/4/2
f 5/5/3 3/3/1 7/7/3
f 2/2/2 6/6/4 8/8/4
f 7/7/3 9/5/5 5/5/3
f 10/9/6 8/8/4 6/6/4
f 9/5/5 7/7/3 11/7/5
f 8/8/4 10/9/6 12/10/6
f 13/11/7 9/5/8 11/7/8
f 14/12/9 12/10/6 10/9/6
f 9/5/8 13/11/7 15/13/7
f 12/10/6 14/12/9 16/14/9
f 13/11/7 17/15/10 15/13/7
f 14/12/11 18/14/11 16/14/11
f 17/15/10 13/11/7 19/16/10
f 18/14/11 14/12/11 20/12/11
f 19/16/10 21/17/12 17/15/10
f 22/18/13 18/14/14 20/12/14
f 21/17/12 19/16/10 23/19/12
f 18/14/14 22/18/13 24/20/13
f 23/19/12 25/21/15 21/17/12
f 26/22/16 24/20/13 22/18/13
f 25/21/15 23/19/12 27/23/15
f 24/20/13 26/22/16 28/24/16
f 27/23/15 29/21/17 25/21/15
f 26/22/16 30/25/18 28/24/16
f 29/21/17 27/23/15 31/23/17
f 30/25/18 26/22/16 32/26/18
f 31/23/17 33/27/19 29/21/17
f 32/26/18 34/28/20 30/25/18
f 33/27/19 31/23/17 35/29/19
f 34/28/20 32/26/18 36/30/20
f 35/29/19 37/31/21 33/27/19
f 36/30/20 38/32/22 34/28/20
f 37/31/21 35/29/19 39/33/21
f 38/32/22 36/30/20 40/34/22
f 41/19/23 37/31/21 39/33/21
f 40/34/22 42/35/24 38/32/22
f 37/31/21 41/19/23 43/17/23
f 42/35/24 40/34/22 44/36/24
f 41/19/23 45/37/25 43/17/23
f 46/38/26 42/39/27 44/40/27
f 45/37/25 41/19/23 47/41/25
f 42/39/27 46/38/26 48/42/26
f 49/43/28 45/37/25 47/41/25
f 50/44/29 48/42/26 46/38/26
f 45/37/25 49/43/28 51/45/28
f 48/42/26 50/44/29 52/46/29
f 49/43/28 53/47/30 51/45/28
f 54/48/31 52/46/29 50/44/29
f 53/47/30 49/43/28 55/49/30
f 52/46/29 54/48/31 56/50/31
f 57/51/32 56/50/31 54/48/31
f 56/50/31 57/51/32 58/52/32
f 59/53/33 58/52/32 57/51/32
f 58/52/32 59/53/33 60/54/33
f 59/53/33 61/55/34 60/54/33
f 61/55/34 59/53/33 62/56/34
f 62/56/34 63/55/35 61/55/34
f 63/55/35 62/56/34 64/56/35
f 64/56/35 65/57/36 63/55/35
f 65/57/36 64/56/35 66/58/36
f 67/59/37 65/57/36 66/58/36
f 65/57/36 67/59/37 68/60/37
f 69/61/38 68/60/37 67/59/37
f 68/60/37 69/61/38 70/62/38
f 71/63/9 70/62/9 69/61/9
f 70/62/9 71/63/9 72/64/9
usemtl material_1_0
f 3//39 2//40 1//39
f 4//40 1//39 2//40
f 1//39 5//41 3//39
f 4//40 2//40 6//42
f 7//41 3//39 5//41
f 8//42 6//42 2//40
f 5//41 9//11 7//41
f 6//42 8//42 10//43
f 11//11 7//41 9//11
f 12//43 10//43 8//42
f 11//44 9//44 13//45
f 10//43 12//43 14//30
f 15//45 13//45 9//44
f 16//30 14//30 12//43
f 15//45 17//46 13//45
f 16//5 18//5 14//5
f 19//46 13//45 17//46
f 20//5 14//5 18//5
f 17//46 21//47 19//46
f 20//48 18//48 22//49
f 23//47 19//46 21//47
f 24//49 22//49 18//48
f 21//47 25//50 23//47
f 22//49 24//49 26//51
f 27//50 23//47 25//50
f 28//51 26//51 24//49
f 25//50 29//52 27//50
f 28//51 30//53 26//51
f 31//52 27//50 29//52
f 32//53 26//51 30//53
f 29//52 33//54 31//52
f 30//53 34//55 32//53
f 35//54 31//52 33//54
f 36//55 32//53 34//55
f 33//54 37//56 35//54
f 34//55 38//57 36//55
f 39//56 35//54 37//56
f 40//57 36//55 38//57
f 39//56 37//56 41//58
f 38//57 42//59 40//57
f 43//58 41//58 37//56
f 44//59 40//57 42//59
f 43//58 45//60 41//58
f 44//61 42//61 46//62
f 47//60 41//58 45//60
f 48//62 46//62 42//61
f 47//60 45//60 49//63
f 46//62 48//62 50//64
f 51//63 49//63 45//60
f 52//64 50//64 48//62
f 51//63 53//9 49//63
f 50//64 52//64 54//65
f 55//9 49//63 53//9
f 56//65 54//65 52//64
f 54//65 56//65 57//66
f 58//66 57//66 56//65
f 57//66 58//66 59//67
f 60//67 59//67 58//66
f 60//67 61//68 59//67
f 62//68 59//67 61//68
f 61//68 63//69 62//68
f 64//69 62//68 63//69
f 63//69 65//70 64//69
f 66//70 64//69 65//70
f 66//70 65//70 67//71
f 68//71 67//71 65//70
f 67//71 68//71 69//72
f 70//72 69//72 68//71
f 69//30 70//30 71//30
f 72//30 71//30 70//30
