# SSTK version 0.8.0
# 16
mtllib original_16.mtl
o group_7/group_8/ID95#ID95
v 0.155638 0.178455 0.529013
v 0.153821 0.177702 0.484347
v 0.153821 0.177702 0.529013
v 0.155638 0.178455 0.484347
v 0.151149 0.176596 0.529013
v 0.153821 0.177702 0.484347
v 0.151149 0.176596 0.484347
v 0.153821 0.177702 0.529013
v 0.156610 0.174829 0.532735
v 0.153821 0.177702 0.529013
v 0.155246 0.174264 0.532735
v 0.155638 0.178455 0.529013
v 0.160455 0.179089 0.529013
v 0.160455 0.179089 0.484347
v 0.142478 0.165295 0.484347
v 0.179066 0.160478 0.484347
v 0.142782 0.152892 0.484347
v 0.178432 0.165295 0.484347
v 0.144337 0.169784 0.484347
v 0.176572 0.169784 0.484347
v 0.147295 0.173638 0.484347
v 0.173615 0.173638 0.484347
v 0.151149 0.176596 0.484347
v 0.169760 0.176596 0.484347
v 0.153821 0.177702 0.484347
v 0.167089 0.177702 0.484347
v 0.155638 0.178455 0.484347
v 0.165272 0.178455 0.484347
v 0.160455 0.179089 0.484347
v 0.147295 0.173638 0.484347
v 0.147295 0.173638 0.529013
v 0.155246 0.174264 0.532735
v 0.151149 0.176596 0.529013
v 0.153027 0.173345 0.532735
v 0.153821 0.177702 0.529013
v 0.163081 -0.019902 0.532735
v 0.157922 -0.019902 0.532735
v 0.160502 -0.020242 0.532735
v 0.165484 -0.018906 0.532735
v 0.155519 -0.018906 0.532735
v 0.167548 -0.017323 0.532735
v 0.153455 -0.017323 0.532735
v 0.169132 -0.015259 0.532735
v 0.151871 -0.015259 0.532735
v 0.150876 -0.012855 0.532735
v 0.170127 -0.012855 0.532735
v 0.150498 -0.009987 0.532735
v 0.170506 -0.009980 0.532735
v 0.146218 0.164599 0.532735
v 0.175337 0.160287 0.532735
v 0.174805 0.164323 0.532735
v 0.173321 0.167907 0.532735
v 0.147589 0.167907 0.532735
v 0.170960 0.170983 0.532735
v 0.149950 0.170983 0.532735
v 0.167883 0.173345 0.532735
v 0.153027 0.173345 0.532735
v 0.165664 0.174264 0.532735
v 0.155246 0.174264 0.532735
v 0.164300 0.174829 0.532735
v 0.156610 0.174829 0.532735
v 0.160455 0.175335 0.532735
v 0.160455 0.175335 0.532735
v 0.160455 0.179089 0.529013
v 0.165272 0.178455 0.529013
v 0.165272 0.178455 0.484347
v 0.179066 0.160478 0.521569
v 0.178432 0.165295 0.529013
v 0.179066 0.160478 0.529013
v 0.178432 0.165295 0.484347
v 0.179066 0.160478 0.484347
v 0.179066 0.160478 0.484347
v 0.142782 0.152892 0.521569
v 0.142782 0.152892 0.484347
v 0.179066 0.160478 0.521569
v 0.142478 0.165295 0.529013
v 0.142782 0.152892 0.521569
v 0.146782 -0.010276 0.529013
v 0.142478 0.165295 0.484347
v 0.142782 0.152892 0.484347
v 0.146782 -0.010276 0.521569
v 0.144337 0.169784 0.484347
v 0.144337 0.169784 0.529013
v 0.167089 0.177702 0.484347
v 0.167089 0.177702 0.529013
v 0.169760 0.176596 0.529013
v 0.167089 0.177702 0.484347
v 0.167089 0.177702 0.529013
v 0.169760 0.176596 0.484347
v 0.173615 0.173638 0.529013
v 0.173615 0.173638 0.484347
v 0.176572 0.169784 0.484347
v 0.176572 0.169784 0.529013
v 0.147295 0.173638 0.529013
v 0.149950 0.170983 0.532735
v 0.179066 0.160478 0.529013
v 0.170506 -0.009980 0.532735
v 0.174221 -0.010276 0.529013
v 0.175337 0.160287 0.532735
v 0.174805 0.164323 0.532735
v 0.178432 0.165295 0.529013
v 0.173321 0.167907 0.532735
v 0.176572 0.169784 0.529013
v 0.170960 0.170983 0.532735
v 0.173615 0.173638 0.529013
v 0.167883 0.173345 0.532735
v 0.169760 0.176596 0.529013
v 0.165664 0.174264 0.532735
v 0.167089 0.177702 0.529013
v 0.167089 0.177702 0.529013
v 0.164300 0.174829 0.532735
v 0.165664 0.174264 0.532735
v 0.165272 0.178455 0.529013
v 0.144337 0.169784 0.529013
v 0.147589 0.167907 0.532735
v 0.142478 0.165295 0.529013
v 0.146218 0.164599 0.532735
v 0.150498 -0.009987 0.532735
v 0.146782 -0.010276 0.529013
v 0.150876 -0.012855 0.532735
v 0.147250 -0.013827 0.529013
v 0.151871 -0.015259 0.532735
v 0.148620 -0.017136 0.529013
v 0.153455 -0.017323 0.532735
v 0.150800 -0.019977 0.529013
v 0.155519 -0.018906 0.532735
v 0.153642 -0.022158 0.529013
v 0.157922 -0.019902 0.532735
v 0.156951 -0.023528 0.529013
v 0.160502 -0.020242 0.532735
v 0.160502 -0.023996 0.529013
v 0.164053 -0.023528 0.529013
v 0.163081 -0.019902 0.532735
v 0.167361 -0.022158 0.529013
v 0.165484 -0.018906 0.532735
v 0.170203 -0.019977 0.529013
v 0.167548 -0.017323 0.532735
v 0.172383 -0.017136 0.529013
v 0.169132 -0.015259 0.532735
v 0.173754 -0.013827 0.529013
v 0.170127 -0.012855 0.532735
v 0.174221 -0.010276 0.521569
v 0.174221 -0.010276 0.529013
v 0.156951 -0.023528 0.521569
v 0.164053 -0.023528 0.521569
v 0.160502 -0.023996 0.521569
v 0.153642 -0.022158 0.521569
v 0.167361 -0.022158 0.521569
v 0.150800 -0.019977 0.521569
v 0.170203 -0.019977 0.521569
v 0.148620 -0.017136 0.521569
v 0.172383 -0.017136 0.521569
v 0.147250 -0.013827 0.521569
v 0.173754 -0.013827 0.521569
v 0.146782 -0.010276 0.521569
v 0.174221 -0.010276 0.521569
v 0.142782 0.152892 0.521569
v 0.179066 0.160478 0.521569
v 0.147250 -0.013827 0.529013
v 0.147250 -0.013827 0.521569
v 0.148620 -0.017136 0.529013
v 0.148620 -0.017136 0.521569
v 0.150800 -0.019977 0.529013
v 0.150800 -0.019977 0.521569
v 0.153642 -0.022158 0.521569
v 0.153642 -0.022158 0.529013
v 0.156951 -0.023528 0.529013
v 0.156951 -0.023528 0.521569
v 0.160502 -0.023996 0.521569
v 0.160502 -0.023996 0.529013
v 0.164053 -0.023528 0.521569
v 0.164053 -0.023528 0.529013
v 0.167361 -0.022158 0.529013
v 0.167361 -0.022158 0.521569
v 0.170203 -0.019977 0.521569
v 0.170203 -0.019977 0.529013
v 0.172383 -0.017136 0.529013
v 0.172383 -0.017136 0.521569
v 0.173754 -0.013827 0.529013
v 0.173754 -0.013827 0.521569
vt -0.3248031 0.2385637
vt -0.4429134 0.2333637
vt -0.3248031 0.2333637
vt -0.4429134 0.2385637
vt -0.3248031 0.2257166
vt -0.4429134 0.2257166
vt -0.07610316 0.5993358
vt -0.08650753 0.6093729
vt -0.07947196 0.5973624
vt -0.08202064 0.6120013
vt -0.3248031 0.118886
vt -0.4429134 0.1060389
vt -0.3248031 0.1060389
vt -0.4429134 0.118886
vt -0.001676879 0.5005389
vt -0.0984252 0.4878017
vt -0.002480887 0.4677412
vt -0.09674832 0.5005389
vt -0.006593238 0.512408
vt -0.09183196 0.512408
vt -0.01441404 0.5226003
vt -0.08401116 0.5226003
vt -0.0246063 0.5304211
vt -0.0738189 0.5304211
vt -0.03167123 0.5333475
vt -0.06675396 0.5333475
vt -0.03647544 0.5353375
vt -0.06194976 0.5353375
vt -0.0492126 0.5370143
vt -0.3248031 0.3424214
vt -0.4429134 0.3295743
vt -0.3248031 0.3295743
vt -0.4429134 0.3424214
vt -0.09310581 0.6055077
vt -0.08495216 0.5941522
vt 0.05615654 0.01082534
vt 0.04251622 0.01082534
vt 0.04933638 0.00992745
vt 0.06251192 0.01345783
vt 0.03616084 0.01345783
vt 0.06796941 0.0176455
vt 0.03070336 0.0176455
vt 0.07215708 0.02310299
vt 0.02651568 0.02310299
vt 0.0238832 0.02945837
vt 0.07478957 0.02945837
vt 0.02288457 0.03704365
vt 0.07579067 0.03706251
vt 0.0115675 0.4986972
vt 0.08856436 0.4872958
vt 0.08715914 0.4979695
vt 0.08323453 0.5074443
vt 0.01519066 0.5074443
vt 0.07699139 0.5155805
vt 0.0214338 0.5155805
vt 0.06885517 0.5218237
vt 0.02957002 0.5218237
vt 0.06298739 0.5242542
vt 0.0354378 0.5242542
vt 0.05938034 0.5257483
vt 0.03904485 0.5257483
vt 0.0492126 0.5270869
vt 0.008033839 0.5992818
vt -0.005870084 0.6108518
vt -0.002048382 0.5974047
vt 0.006759938 0.6132033
vt 0.3248031 0.008455793
vt 0.4429134 0.02130286
vt 0.3248031 0.02130286
vt 0.4429134 0.008455793
vt 0.3444882 0.4707815
vt 0.3248031 0.4836285
vt 0.3248031 0.4707815
vt 0.4429134 0.4836285
vt 0.4429134 0.4707815
vt 0.4429134 0.1961749
vt 0.3444882 0.0981559
vt 0.4429134 0.0981559
vt 0.3444882 0.1961749
vt -0.3248031 0.5003475
vt -0.3444882 0.46754
vt -0.3248031 0.03594762
vt -0.4429134 0.5003475
vt -0.4429134 0.46754
vt -0.3444882 0.03594762
vt -0.4429134 0.4759264
vt -0.3248031 0.4630794
vt -0.3248031 0.4759264
vt -0.4429134 0.4630794
vt -0.4429134 0.4233814
vt -0.3248031 0.4105343
vt -0.3248031 0.4233814
vt -0.4429134 0.4105343
vt 0.3248031 0.1476307
vt 0.4429134 0.1424306
vt 0.4429134 0.1476307
vt 0.3248031 0.1424306
vt 0.3248031 0.1347836
vt 0.4429134 0.1347836
vt 0.3248031 0.2514884
vt 0.4429134 0.2643354
vt 0.3248031 0.2643354
vt 0.4429134 0.2514884
vt 0.4429134 0.3506169
vt 0.3248031 0.3634639
vt 0.3248031 0.3506169
vt 0.4429134 0.3634639
vt 0.4429134 0.4254137
vt 0.3248031 0.4382607
vt 0.3248031 0.4254137
vt 0.4429134 0.4382607
vt -0.1385178 0.5915273
vt -0.1565816 0.5924654
vt -0.1454675 0.5839857
vt -0.1478757 0.6019128
vt 0.2992354 0.4844924
vt 0.2762689 0.03366252
vt 0.2901754 0.03287839
vt 0.2853031 0.4839863
vt 0.2985772 0.5006123
vt 0.283647 0.5108236
vt 0.2846449 0.5001041
vt 0.2973864 0.513404
vt 0.2914734 0.5286562
vt 0.2748683 0.5358292
vt 0.277751 0.5259872
vt 0.2878623 0.5409853
vt 0.2738114 0.5474672
vt 0.256068 0.550982
vt 0.2609588 0.5419679
vt 0.2676845 0.5587592
vt 0.2406538 0.5637542
vt 0.22259 0.5628161
vt 0.2295397 0.5552745
vt 0.2319479 0.5732016
vt 0.1850299 0.5825267
vt 0.1713961 0.5743814
vt 0.1768763 0.5711712
vt 0.1784316 0.5863919
vt 0.1680273 0.5763548
vt 0.1739447 0.5890202
vt 0.1034674 0.601921
vt 0.08956348 0.5903511
vt 0.0996457 0.5884739
vt 0.09083738 0.6042725
vt -0.1789614 0.5773144
vt -0.1967048 0.5737996
vt -0.1838523 0.5683003
vt -0.190578 0.5850916
vt -0.2025741 0.5539028
vt -0.2191792 0.5467298
vt -0.2052353 0.5448167
vt -0.2155681 0.5590589
vt -0.2064931 0.03289779
vt -0.2284501 0.4964626
vt -0.2204013 0.03213255
vt -0.2144967 0.4946207
vt -0.2047916 0.007137226
vt -0.2194089 0.01398662
vt -0.218531 0.004556799
vt -0.2055008 0.01475502
vt -0.1942557 -0.04522852
vt -0.2099118 -0.04129583
vt -0.2072498 -0.0503846
vt -0.1961893 -0.03862685
vt -0.1716996 -0.0984992
vt -0.1878328 -0.09795216
vt -0.1833162 -0.1062764
vt -0.1749803 -0.09245286
vt -0.1328881 -0.1503301
vt -0.1486638 -0.1537512
vt -0.142246 -0.1607157
vt -0.1375497 -0.1452715
vt -0.07286108 -0.1938984
vt -0.08695033 -0.2017769
vt -0.07877856 -0.2065638
vt -0.07879668 -0.1904214
vt 0.00815658 -0.2163455
vt -0.002427916 -0.2285335
vt 0.00688268 -0.230267
vt 0.001393786 -0.2150864
vt 0.1002707 -0.2195803
vt 0.08968622 -0.2073923
vt 0.09096012 -0.2213137
vt 0.09644902 -0.2061332
vt 0.1791056 -0.178738
vt 0.1650164 -0.1708595
vt 0.1709339 -0.183525
vt 0.170952 -0.1673825
vt 0.2329475 -0.1249678
vt 0.2171718 -0.1215467
vt 0.2265296 -0.1319323
vt 0.2218334 -0.1164881
vt 0.2651333 -0.07155356
vt 0.2490001 -0.0721006
vt 0.2606167 -0.07987778
vt 0.2522807 -0.06605426
vt 0.2823879 -0.02317681
vt 0.2667318 -0.0271095
vt 0.2797258 -0.03226558
vt 0.2686654 -0.02050783
vt 0.2894801 0.02039859
vt 0.2748629 0.01354919
vt 0.2886023 0.01096876
vt 0.2755738 0.02118593
vt 0.3444882 0.03869196
vt 0.3248031 0.4903969
vt 0.3248031 0.03869196
vt 0.3444882 0.4903969
vt -0.03994681 0.001236161
vt -0.05872595 0.001236161
vt -0.04933638 0
vt -0.03119712 0.004860401
vt -0.06747564 0.004860401
vt -0.02368359 0.01062573
vt -0.07498917 0.01062573
vt -0.01791825 0.01813926
vt -0.08075451 0.01813926
vt -0.01429401 0.02688895
vt -0.08437875 0.02688895
vt -0.01305785 0.03627853
vt -0.08561491 0.03627853
vt -0.3444882 0.03426377
vt -0.3248031 0.02479317
vt -0.3248031 0.03426377
vt -0.3444882 0.02479317
vt -0.3444882 0.01937207
vt -0.3248031 0.009901475
vt -0.3248031 0.01937207
vt -0.3444882 0.009901475
vt -0.3444882 0.003482903
vt -0.3248031 -0.005987693
vt -0.3248031 0.003482903
vt -0.3444882 -0.005987693
vt -0.3444882 -0.02179151
vt -0.3248031 -0.01232092
vt -0.3444882 -0.01232092
vt -0.3248031 -0.02179151
vt -0.3444882 -0.02696238
vt -0.3248031 -0.03643298
vt -0.3248031 -0.02696238
vt -0.3444882 -0.03643298
vt -0.3444882 -0.0489143
vt -0.3248031 -0.03944371
vt -0.3444882 -0.03944371
vt -0.3248031 -0.0489143
vt 0.3444882 0.0583849
vt 0.3248031 0.0489143
vt 0.3444882 0.0489143
vt 0.3248031 0.0583849
vt 0.3444882 0.05472877
vt 0.3248031 0.06419936
vt 0.3248031 0.05472877
vt 0.3444882 0.06419936
vt 0.3444882 0.06596145
vt 0.3248031 0.05649085
vt 0.3444882 0.05649085
vt 0.3248031 0.06596145
vt 0.3444882 0.05408048
vt 0.3248031 0.06355107
vt 0.3248031 0.05408048
vt 0.3444882 0.06355107
vt 0.3444882 0.04766191
vt 0.3248031 0.0571325
vt 0.3248031 0.04766191
vt 0.3444882 0.0571325
vt 0.3444882 0.03767255
vt 0.3248031 0.04714315
vt 0.3248031 0.03767255
vt 0.3444882 0.04714315
vn -0.25881900959356163 0.9659258358036645 0
vn -0.38268341623423263 0.9238795391929066 0
vn -0.5000000016387101 0.866025402838329 0
vn -0.18222480802114538 0.6800722299353215 0.7101379312587494
vn -0.2705980896398682 0.6532814749884331 0.7071067729276754
vn 0 1 0
vn 0 0 -1
vn -0.7071067811865476 0.7071067811865476 0
vn -0.3520313026685187 0.6097361046220099 0.7101379053830904
vn 0 0 1
vn 0 0.7040626064297918 0.7101379064852742
vn 0.25881900959356163 0.9659258358036645 0
vn 0.9969702942639377 0.07778323955247463 0
vn 0.9659258358036645 0.25881900959356163 0
vn 0.9986860831457125 0.051245559135156285 0
vn 0.9914448610250887 0.1305261948688555 0
vn 0.2046591024148035 -0.9788333115494012 0
vn -0.9831023372145875 0.18305680692947549 0
vn -0.9996996620728889 -0.024506849070246774 0
vn -0.9969825244943693 -0.07762632190716261 0
vn -0.866025402838329 0.5000000016387101 0
vn 0.38268341623423263 0.9238795391929066 0
vn 0.5000000016387101 0.866025402838329 0
vn 0.7071067811865476 0.7071067811865476 0
vn 0.866025402838329 0.5000000016387101 0
vn -0.49784742379961405 0.4978474237996139 0.7101379339481697
vn 0.7050560887861602 0.0361785294245843 0.70822808873571
vn 0.704402480332546 -0.056211618430528944 0.7075714802440651
vn 0.6800722299353216 0.1822248080211452 0.7101379312587492
vn 0.60973610462201 0.3520313026685185 0.7101379053830904
vn 0.49784742379961405 0.4978474237996139 0.7101379339481697
vn 0.3520313026685187 0.6097361046220099 0.7101379053830904
vn 0.2705980896398682 0.6532814749884331 0.7071067729276754
vn 0.18222480802114538 0.6800722299353215 0.7101379312587494
vn -0.60973610462201 0.3520313026685185 0.7101379053830904
vn -0.6874992730388881 0.12801459497975334 0.7148125719677642
vn -0.7044739707023555 -0.05485123771884837 0.7076070705720563
vn -0.6800722299353215 -0.1822248080211455 0.7101379312587491
vn -0.60973610462201 -0.35203130266851884 0.7101379053830902
vn -0.49784742379961405 -0.4978474237996142 0.7101379339481695
vn -0.3520313026685187 -0.6097361046220101 0.7101379053830902
vn -0.18222480802114538 -0.6800722299353217 0.7101379312587491
vn 0 -0.704062606429792 0.710137906485274
vn 0.18222480802114538 -0.6800722299353217 0.7101379312587491
vn 0.3520313026685187 -0.6097361046220101 0.7101379053830902
vn 0.49784742379961405 -0.4978474237996142 0.7101379339481695
vn 0.60973610462201 -0.35203130266851884 0.7101379053830902
vn 0.6800722299353215 -0.1822248080211455 0.7101379312587491
vn 0.9968310727674664 -0.07954754782683211 0
vn -0.9659258358036645 -0.25881900959356163 0
vn -0.866025402838329 -0.5000000016387101 0
vn -0.7071067811865476 -0.7071067811865476 0
vn -0.5000000016387101 -0.866025402838329 0
vn -0.25881900959356163 -0.9659258358036645 0
vn 0 -1 0
vn 0.25881900959356163 -0.9659258358036645 0
vn 0.5000000016387101 -0.866025402838329 0
vn 0.7071067811865476 -0.7071067811865476 0
vn 0.866025402838329 -0.5000000016387101 0
vn 0.9659258358036645 -0.25881900959356163 0
usemtl material_0_0
f 1/1/1 2/2/2 3/3/2
f 2/2/2 1/1/1 4/4/1
f 5/5/3 6/2/2 7/6/3
f 6/2/2 5/5/3 8/3/2
f 9/7/4 10/8/5 11/9/5
f 10/8/5 9/7/4 12/10/4
f 13/11/6 4/12/1 1/13/1
f 4/12/1 13/11/6 14/14/6
f 15/15/7 16/16/7 17/17/7
f 16/16/7 15/15/7 18/18/7
f 18/18/7 15/15/7 19/19/7
f 18/18/7 19/19/7 20/20/7
f 20/20/7 19/19/7 21/21/7
f 20/20/7 21/21/7 22/22/7
f 22/22/7 21/21/7 23/23/7
f 22/22/7 23/23/7 24/24/7
f 24/24/7 23/23/7 25/25/7
f 24/24/7 25/25/7 26/26/7
f 26/26/7 25/25/7 27/27/7
f 26/26/7 27/27/7 28/28/7
f 28/28/7 27/27/7 29/29/7
f 5/30/3 30/31/8 31/32/8
f 30/31/8 5/30/3 7/33/3
f 32/9/5 33/34/9 34/35/9
f 33/34/9 32/9/5 35/8/5
f 36/36/10 37/37/10 38/38/10
f 37/37/10 36/36/10 39/39/10
f 37/37/10 39/39/10 40/40/10
f 40/40/10 39/39/10 41/41/10
f 40/40/10 41/41/10 42/42/10
f 42/42/10 41/41/10 43/43/10
f 42/42/10 43/43/10 44/44/10
f 44/44/10 43/43/10 45/45/10
f 45/45/10 43/43/10 46/46/10
f 45/45/10 46/46/10 47/47/10
f 47/47/10 46/46/10 48/48/10
f 47/47/10 48/48/10 49/49/10
f 49/49/10 48/48/10 50/50/10
f 49/49/10 50/50/10 51/51/10
f 49/49/10 51/51/10 52/52/10
f 49/49/10 52/52/10 53/53/10
f 53/53/10 52/52/10 54/54/10
f 53/53/10 54/54/10 55/55/10
f 55/55/10 54/54/10 56/56/10
f 55/55/10 56/56/10 57/57/10
f 57/57/10 56/56/10 58/58/10
f 57/57/10 58/58/10 59/59/10
f 59/59/10 58/58/10 60/60/10
f 59/59/10 60/60/10 61/61/10
f 61/61/10 60/60/10 62/62/10
f 63/63/11 12/64/4 9/65/4
f 12/64/4 63/63/11 64/66/11
f 65/67/12 14/68/6 13/69/6
f 14/68/6 65/67/12 66/70/12
f 67/71/13 68/72/14 69/73/15
f 68/72/14 67/71/13 70/74/14
f 70/74/14 67/71/13 71/75/16
f 72/76/17 73/77/17 74/78/17
f 73/77/17 72/76/17 75/79/17
f 76/80/18 77/81/19 78/82/20
f 77/81/19 76/80/18 79/83/18
f 77/81/19 79/83/18 80/84/19
f 81/85/20 78/82/20 77/81/19
f 82/86/21 76/87/18 83/88/21
f 76/87/18 82/86/21 79/89/18
f 30/90/8 83/91/21 31/92/8
f 83/91/21 30/90/8 82/93/21
f 65/94/12 84/95/22 66/96/12
f 84/95/22 65/94/12 85/97/22
f 86/98/23 87/95/22 88/97/22
f 87/95/22 86/98/23 89/99/23
f 90/100/24 89/101/23 86/102/23
f 89/101/23 90/100/24 91/103/24
f 92/104/25 90/105/24 93/106/25
f 90/105/24 92/104/25 91/107/24
f 70/108/14 93/109/25 68/110/14
f 93/109/25 70/108/14 92/111/25
f 34/112/9 94/113/26 95/114/26
f 94/113/26 34/112/9 33/115/9
f 96/116/27 97/117/28 98/118/28
f 97/117/28 96/116/27 99/119/27
f 96/120/27 100/121/29 99/122/27
f 100/121/29 96/120/27 101/123/29
f 101/124/29 102/125/30 100/126/29
f 102/125/30 101/124/29 103/127/30
f 103/128/30 104/129/31 102/130/30
f 104/129/31 103/128/30 105/131/31
f 105/132/31 106/133/32 104/134/31
f 106/133/32 105/132/31 107/135/32
f 107/136/32 108/137/33 106/138/32
f 108/137/33 107/136/32 109/139/33
f 110/139/33 111/140/34 112/137/33
f 111/140/34 110/139/33 113/141/34
f 113/142/34 63/143/11 111/144/34
f 63/143/11 113/142/34 64/145/11
f 95/146/26 114/147/35 115/148/35
f 114/147/35 95/146/26 94/149/26
f 115/150/35 116/151/36 117/152/36
f 116/151/36 115/150/35 114/153/35
f 118/154/37 116/155/36 119/156/37
f 116/155/36 118/154/37 117/157/36
f 120/158/38 119/159/37 121/160/38
f 119/159/37 120/158/38 118/161/37
f 122/162/39 121/163/38 123/164/39
f 121/163/38 122/162/39 120/165/38
f 124/166/40 123/167/39 125/168/40
f 123/167/39 124/166/40 122/169/39
f 126/170/41 125/171/40 127/172/41
f 125/171/40 126/170/41 124/173/40
f 128/174/42 127/175/41 129/176/42
f 127/175/41 128/174/42 126/177/41
f 130/178/43 129/179/42 131/180/43
f 129/179/42 130/178/43 128/181/42
f 132/182/44 130/183/43 131/184/43
f 130/183/43 132/182/44 133/185/44
f 134/186/45 133/187/44 132/188/44
f 133/187/44 134/186/45 135/189/45
f 136/190/46 135/191/45 134/192/45
f 135/191/45 136/190/46 137/193/46
f 138/194/47 137/195/46 136/196/46
f 137/195/46 138/194/47 139/197/47
f 140/198/48 139/199/47 138/200/47
f 139/199/47 140/198/48 141/201/48
f 98/202/28 141/203/48 140/204/48
f 141/203/48 98/202/28 97/205/28
f 142/206/49 69/207/15 143/208/49
f 69/207/15 142/206/49 67/209/13
f 144/210/7 145/211/7 146/212/7
f 145/211/7 144/210/7 147/213/7
f 145/211/7 147/213/7 148/214/7
f 148/214/7 147/213/7 149/215/7
f 148/214/7 149/215/7 150/216/7
f 150/216/7 149/215/7 151/217/7
f 150/216/7 151/217/7 152/218/7
f 152/218/7 151/217/7 153/219/7
f 152/218/7 153/219/7 154/220/7
f 154/220/7 153/219/7 155/221/7
f 154/220/7 155/221/7 156/222/7
f 156/222/7 155/221/7 157/17/7
f 156/222/7 157/17/7 158/16/7
f 81/223/20 159/224/50 78/225/20
f 159/224/50 81/223/20 160/226/50
f 160/227/50 161/228/51 159/229/50
f 161/228/51 160/227/50 162/230/51
f 162/231/51 163/232/52 161/233/51
f 163/232/52 162/231/51 164/234/52
f 165/235/53 163/236/52 164/237/52
f 163/236/52 165/235/53 166/238/53
f 165/239/53 167/240/54 166/241/53
f 167/240/54 165/239/53 168/242/54
f 169/243/55 167/244/54 168/245/54
f 167/244/54 169/243/55 170/246/55
f 171/247/56 170/248/55 169/249/55
f 170/248/55 171/247/56 172/250/56
f 171/251/56 173/252/57 172/253/56
f 173/252/57 171/251/56 174/254/57
f 175/255/58 173/256/57 174/257/57
f 173/256/57 175/255/58 176/258/58
f 175/259/58 177/260/59 176/261/58
f 177/260/59 175/259/58 178/262/59
f 178/263/59 179/264/60 177/265/59
f 179/264/60 178/263/59 180/266/60
f 180/267/60 143/268/49 179/269/60
f 143/268/49 180/267/60 142/270/49
