# SSTK version 0.8.0
# 68
mtllib original_68.mtl
o #ID423
v 0.056916 -0.493877 0.588316
v 0.057068 -0.493279 0.596802
v 0.056916 -0.493877 0.596802
v 0.056916 -0.493877 0.596802
v 0.057068 -0.493279 0.596802
v 0.056916 -0.493877 0.588316
v 0.057123 -0.493041 0.596802
v 0.057123 -0.493041 0.596802
vt 0.0238189 0.8631547
vt 0.001377953 0.8647852
vt 0.001377953 0.8631547
vt 0.2551923 3.422324
vt 0.2551923 3.423955
vt 0.2327514 3.422324
vt 0.02103885 0.8297958
vt -0.00140305 0.8320617
vt -0.001402787 0.8314167
vt 0.2768115 3.144839
vt 0.2768118 3.145484
vt 0.2543698 3.143218
vn 0.9537444078295035 -0.30061870246784694 -0.00001613994029396257
vn 0.9720276273143462 -0.23486470659978764 -0.0009280794353602313
vn 0.9526985791529546 -0.30391679334966243 0
vn -0.9526985791529546 0.30391679334966243 0
vn -0.9720276273143462 0.23486470659978764 0.0009280794353602313
vn -0.9537444078295035 0.30061870246784694 0.00001613994029396257
vn 0.9725733032268085 -0.23259510077170517 -0.0008300286110542105
vn -0.9725733032268085 0.23259510077170517 0.0008300286110542105
usemtl material_0_0
f 1/1/1 2/2/2 3/3/3
f 4/4/4 5/5/5 6/6/6
f 1/7/1 7/8/7 2/9/2
f 5/10/5 8/11/8 6/12/6
