# SSTK version 0.8.0
# 58
mtllib original_58.mtl
o #ID214
v -0.231622 0.381525 0.603464
v -0.234730 0.385576 0.597323
v -0.231622 0.381525 0.597323
v -0.234730 0.385576 0.603464
v -0.227572 0.378418 0.597323
v -0.227572 0.378418 0.603464
v -0.230228 0.382920 0.605420
v -0.233022 0.386562 0.605420
v -0.236684 0.390292 0.597323
v -0.236684 0.390292 0.603464
v -0.222856 0.376464 0.597323
v -0.222856 0.376464 0.603464
v -0.226586 0.380126 0.605420
v -0.222345 0.412339 0.605420
v -0.213243 0.412339 0.605420
v -0.217794 0.412938 0.605420
v -0.226586 0.410582 0.605420
v -0.209002 0.410582 0.605420
v -0.230228 0.407788 0.605420
v -0.205360 0.407788 0.605420
v -0.202566 0.404146 0.605420
v -0.233022 0.404146 0.605420
v -0.200809 0.399905 0.605420
v -0.234779 0.399905 0.605420
v -0.235378 0.395354 0.605420
v -0.200210 0.395354 0.605420
v -0.234779 0.390803 0.605420
v -0.200809 0.390803 0.605420
v -0.202566 0.386562 0.605420
v -0.205360 0.382920 0.605420
v -0.209002 0.380126 0.605420
v -0.222345 0.378369 0.605420
v -0.213243 0.378369 0.605420
v -0.217794 0.377770 0.605420
v -0.237350 0.395354 0.597323
v -0.237350 0.395354 0.603464
v -0.217794 0.375798 0.603464
v -0.217794 0.375798 0.597323
v -0.227572 0.412290 0.603464
v -0.222856 0.414244 0.603464
v -0.231622 0.409182 0.603464
v -0.234730 0.405132 0.603464
v -0.236684 0.400415 0.603464
v -0.212732 0.376464 0.603464
v -0.208016 0.378418 0.603464
v -0.203965 0.381525 0.603464
v -0.200858 0.385576 0.603464
v -0.198904 0.390292 0.603464
v -0.198238 0.395354 0.603464
v -0.198904 0.400415 0.603464
v -0.200858 0.405132 0.603464
v -0.203965 0.409182 0.603464
v -0.208016 0.412290 0.603464
v -0.212732 0.414244 0.603464
v -0.217794 0.414910 0.603464
v -0.236684 0.400415 0.597323
v -0.212732 0.376464 0.597323
v -0.222856 0.414244 0.597323
v -0.227572 0.412290 0.597323
v -0.231622 0.409182 0.597323
v -0.234730 0.405132 0.597323
v -0.208016 0.378418 0.597323
v -0.203965 0.381525 0.597323
v -0.200858 0.385576 0.597323
v -0.198904 0.390292 0.597323
v -0.198238 0.395354 0.597323
v -0.198904 0.400415 0.597323
v -0.200858 0.405132 0.597323
v -0.203965 0.409182 0.597323
v -0.208016 0.412290 0.597323
v -0.212732 0.414244 0.597323
v -0.217794 0.414910 0.597323
vn -0.6558600167857718 -0.6558600167858697 0.37375831330340453
vn -0.8660254028382917 -0.5000000016387747 0
vn -0.7071067811864948 -0.7071067811866003 0
vn -0.8032611847541302 -0.4637630911978724 0.3737582966436793
vn -0.5000000016386454 -0.8660254028383664 0
vn -0.46376309119775255 -0.8032611847541996 0.37375829664367927
vn -0.2879074843782106 -0.28790748437825375 0.9133556595751712
vn -0.35261318837595157 -0.2035812932888886 0.9133556790244255
vn -0.9659258358036452 -0.2588190095936337 0
vn -0.8959214643669439 -0.2400613904522248 0.37375828887228063
vn -0.2588190095934896 -0.965925835803684 0
vn -0.24006139045209102 -0.8959214643669798 0.37375828887228046
vn -0.20358129328883579 -0.35261318837598205 0.9133556790244254
vn -0.10538149626887516 0.3932888860751425 0.9133556767951392
vn 0.10538149626881649 0.3932888860751583 0.9133556767951392
vn 0 0.4071626764500874 0.9133556563059112
vn -0.20358129328888838 0.35261318837595135 0.9133556790244256
vn 0.20358129328883579 0.3526131883759817 0.9133556790244256
vn -0.28790748437825353 0.2879074843782104 0.9133556595751712
vn 0.28790748437821057 0.28790748437825336 0.9133556595751712
vn 0.35261318837595157 0.2035812932888882 0.9133556790244255
vn -0.3526131883759819 0.20358129328883556 0.9133556790244255
vn 0.3932888860751427 0.10538149626887497 0.9133556767951391
vn -0.39328888607515844 0.10538149626881628 0.9133556767951391
vn -0.4071626764500876 0 0.9133556563059111
vn 0.4071626764500876 0 0.9133556563059111
vn -0.3932888860751427 -0.10538149626887537 0.9133556767951391
vn 0.39328888607515833 -0.10538149626881667 0.913355676795139
vn 0.3526131883759819 -0.20358129328883598 0.9133556790244255
vn 0.2879074843782536 -0.28790748437821084 0.9133556595751712
vn 0.20358129328888838 -0.35261318837595174 0.9133556790244254
vn -0.10538149626881649 -0.3932888860751586 0.913355676795139
vn 0.10538149626887516 -0.39328888607514284 0.913355676795139
vn 0 -0.4071626764500878 0.913355656305911
vn -1 0 0
vn -0.9275261297763694 0 0.3737583157363453
vn 0 -0.9275261297763695 0.3737583157363451
vn 0 -1 0
vn -0.46376309119787246 0.8032611847541303 0.37375829664367965
vn -0.24006139045222477 0.8959214643669439 0.3737582888722809
vn -0.6558600167858696 0.6558600167857717 0.3737583133034048
vn -0.8032611847541995 0.4637630911977525 0.37375829664367954
vn -0.8959214643669797 0.24006139045209093 0.37375828887228074
vn 0.24006139045222472 -0.895921464366944 0.37375828887228046
vn 0.46376309119787246 -0.8032611847541306 0.3737582966436793
vn 0.6558600167858696 -0.6558600167857719 0.37375831330340453
vn 0.8032611847541995 -0.4637630911977526 0.3737582966436793
vn 0.8959214643669797 -0.2400613904520911 0.37375828887228063
vn 0.9275261297763694 0 0.3737583157363453
vn 0.895921464366944 0.2400613904522247 0.3737582888722808
vn 0.8032611847541302 0.4637630911978723 0.37375829664367954
vn 0.6558600167857718 0.6558600167858695 0.3737583133034048
vn 0.46376309119775255 0.8032611847541994 0.3737582966436796
vn 0.24006139045209102 0.8959214643669796 0.37375828887228085
vn 0 0.9275261297763693 0.3737583157363456
vn -0.965925835803684 0.2588190095934896 0
vn 0.2588190095936337 -0.9659258358036452 0
vn -0.2588190095936337 0.9659258358036452 0
vn -0.5000000016387747 0.8660254028382917 0
vn -0.7071067811866003 0.7071067811864948 0
vn -0.8660254028383664 0.5000000016386454 0
vn 0.5000000016387747 -0.8660254028382917 0
vn 0.7071067811866003 -0.7071067811864948 0
vn 0.8660254028383664 -0.5000000016386454 0
vn 0.965925835803684 -0.2588190095934896 0
vn 1 0 0
vn 0.9659258358036452 0.2588190095936337 0
vn 0.8660254028382917 0.5000000016387747 0
vn 0.7071067811864948 0.7071067811866003 0
vn 0.5000000016386454 0.8660254028383664 0
vn 0.2588190095934896 0.965925835803684 0
vn 0 1 0
usemtl material_0_0
f 1//1 2//2 3//3
f 2//2 1//1 4//4
f 5//5 1//1 3//3
f 1//1 5//5 6//6
f 4//4 7//7 8//8
f 7//7 4//4 1//1
f 4//4 9//9 2//2
f 9//9 4//4 10//10
f 11//11 6//6 5//5
f 6//6 11//11 12//12
f 1//1 13//13 7//7
f 13//13 1//1 6//6
f 14//14 15//15 16//16
f 15//15 14//14 17//17
f 15//15 17//17 18//18
f 18//18 17//17 19//19
f 18//18 19//19 20//20
f 20//20 19//19 21//21
f 21//21 19//19 22//22
f 21//21 22//22 23//23
f 23//23 22//22 24//24
f 23//23 24//24 25//25
f 23//23 25//25 26//26
f 26//26 25//25 27//27
f 26//26 27//27 28//28
f 28//28 27//27 8//8
f 28//28 8//8 29//29
f 29//29 8//8 7//7
f 29//29 7//7 30//30
f 30//30 7//7 13//13
f 30//30 13//13 31//31
f 31//31 13//13 32//32
f 31//31 32//32 33//33
f 33//33 32//32 34//34
f 10//10 8//8 27//27
f 8//8 10//10 4//4
f 10//10 35//35 9//9
f 35//35 10//10 36//36
f 11//11 37//37 12//12
f 37//37 11//11 38//38
f 6//6 32//32 13//13
f 32//32 6//6 12//12
f 39//39 14//14 40//40
f 14//14 39//39 17//17
f 41//41 17//17 39//39
f 17//17 41//41 19//19
f 42//42 19//19 41//41
f 19//19 42//42 22//22
f 43//43 22//22 42//42
f 22//22 43//43 24//24
f 36//36 24//24 43//43
f 24//24 36//36 25//25
f 36//36 27//27 25//25
f 27//27 36//36 10//10
f 12//12 34//34 32//32
f 34//34 12//12 37//37
f 34//34 44//44 33//33
f 44//44 34//34 37//37
f 33//33 45//45 31//31
f 45//45 33//33 44//44
f 31//31 46//46 30//30
f 46//46 31//31 45//45
f 30//30 47//47 29//29
f 47//47 30//30 46//46
f 29//29 48//48 28//28
f 48//48 29//29 47//47
f 28//28 49//49 26//26
f 49//49 28//28 48//48
f 23//23 49//49 50//50
f 49//49 23//23 26//26
f 21//21 50//50 51//51
f 50//50 21//21 23//23
f 20//20 51//51 52//52
f 51//51 20//20 21//21
f 18//18 52//52 53//53
f 52//52 18//18 20//20
f 15//15 53//53 54//54
f 53//53 15//15 18//18
f 16//16 54//54 55//55
f 54//54 16//16 15//15
f 40//40 16//16 55//55
f 16//16 40//40 14//14
f 36//36 56//56 35//35
f 56//56 36//36 43//43
f 57//57 37//37 38//38
f 37//37 57//57 44//44
f 39//39 58//58 59//59
f 58//58 39//39 40//40
f 41//41 59//59 60//60
f 59//59 41//41 39//39
f 42//42 60//60 61//61
f 60//60 42//42 41//41
f 43//43 61//61 56//56
f 61//61 43//43 42//42
f 62//62 44//44 57//57
f 44//44 62//62 45//45
f 62//62 46//46 45//45
f 46//46 62//62 63//63
f 47//47 63//63 64//64
f 63//63 47//47 46//46
f 48//48 64//64 65//65
f 64//64 48//48 47//47
f 49//49 65//65 66//66
f 65//65 49//49 48//48
f 50//50 66//66 67//67
f 66//66 50//50 49//49
f 51//51 67//67 68//68
f 67//67 51//51 50//50
f 52//52 68//68 69//69
f 68//68 52//52 51//51
f 52//52 70//70 53//53
f 70//70 52//52 69//69
f 54//54 70//70 71//71
f 70//70 54//54 53//53
f 54//54 72//72 55//55
f 72//72 54//54 71//71
f 55//55 58//58 40//40
f 58//58 55//55 72//72
