# SSTK version 0.8.0
# 20
mtllib original_20.mtl
o group_10/ID123#ID123
v 0.093922 0.211262 0.006259
v 0.093922 0.148044 0.480625
v 0.093922 0.211262 0.480625
v 0.093922 0.148044 0.006259
v 0.093922 0.148044 0.006259
v 0.097644 0.144322 0.480625
v 0.093922 0.148044 0.480625
v 0.097644 0.144322 0.006259
v 0.093922 0.211262 0.480625
v 0.097644 0.148044 0.484347
v 0.097644 0.211262 0.484347
v 0.097644 0.214984 0.006259
v 0.097644 0.214984 0.480625
v 0.093922 0.211262 0.006259
v 0.097644 0.211262 0.002537
v 0.097644 0.148044 0.002537
v 0.438631 0.144322 0.006259
v 0.097644 0.144322 0.480625
v 0.097644 0.144322 0.006259
v 0.438631 0.144322 0.480625
v 0.438631 0.211262 0.484347
v 0.097644 0.148044 0.484347
v 0.438631 0.148044 0.484347
v 0.097644 0.211262 0.484347
v 0.438631 0.214984 0.480625
v 0.097644 0.214984 0.006259
v 0.097644 0.214984 0.480625
v 0.438631 0.214984 0.006259
v 0.097644 0.211262 0.002537
v 0.438631 0.148044 0.002537
v 0.097644 0.148044 0.002537
v 0.438631 0.211262 0.002537
v 0.438631 0.144322 0.006259
v 0.442353 0.148044 0.480625
v 0.438631 0.144322 0.480625
v 0.442353 0.148044 0.006259
v 0.438631 0.148044 0.484347
v 0.438631 0.148044 0.002537
v 0.438631 0.211262 0.484347
v 0.442353 0.211262 0.480625
v 0.438631 0.214984 0.480625
v 0.442353 0.211262 0.006259
v 0.438631 0.214984 0.006259
v 0.438631 0.211262 0.002537
v 0.442353 0.148044 0.006259
v 0.442353 0.211262 0.480625
v 0.442353 0.148044 0.480625
v 0.442353 0.211262 0.006259
vt -1.2642 0.1770072
vt -0.00984252 0.00984252
vt -0.00984252 0.1770072
vt -1.2642 0.00984252
vt -1.2642 0.007482329
vt -0.00984252 -0.005464868
vt -0.00984252 0.007482329
vt -1.2642 -0.005464868
vt -0.007482329 0.1770072
vt 0.005464868 0.00984252
vt 0.005464868 0.1770072
vt -0.007482329 0.00984252
vt -1.2642 0.1475089
vt -0.00984252 0.1345617
vt -0.00984252 0.1475089
vt -1.2642 0.1345617
vt -0.9739979 0.1770072
vt -0.9610507 0.00984252
vt -0.9610507 0.1770072
vt -0.9739979 0.00984252
vt -0.77899 1.2642
vt -0.008411583 0.00984252
vt -0.008411583 1.2642
vt -0.77899 0.00984252
vt -0.002017461 -0.006967498
vt 0.005464868 0.004769842
vt -0.007482329 0.004769842
vt -0.9739979 0.4557158
vt -0.9665156 0.4439784
vt -0.9610507 0.4557158
vt 0.77899 0.1770072
vt 0.008411583 0.00984252
vt 0.77899 0.00984252
vt 0.008411583 0.1770072
vt -0.007482329 0.1519157
vt 0.005464868 0.1519157
vt -0.002017461 0.1636531
vt 0.008411583 1.2642
vt 0.77899 1.2642
vt -0.9739979 -0.2990302
vt -0.9610507 -0.2990302
vt -0.9665156 -0.2872929
vt -0.008411583 0.1770072
vt -0.77899 0.1770072
vt 1.2642 0.5060971
vt 0.00984252 0.5190443
vt 0.00984252 0.5060971
vt 1.2642 0.5190443
vt 0.77899 -0.006959712
vt 0.008411583 0.006959712
vt 0.008411583 -0.006959712
vt 0.77899 0.006959712
vt -0.008411583 0.9078438
vt -0.77899 0.8939244
vt -0.008411583 0.8939244
vt -0.77899 0.9078438
vt 0.5190443 0.00984252
vt 0.5060971 0.1770072
vt 0.5060971 0.00984252
vt 0.5190443 0.1770072
vt 0.77899 0.125163
vt 0.008411583 0.1390824
vt 0.008411583 0.125163
vt 0.77899 0.1390824
vt 1.2642 -0.3770003
vt 0.00984252 -0.3640531
vt 0.00984252 -0.3770003
vt 1.2642 -0.3640531
vt -0.008411583 -0.7618017
vt -0.77899 -0.7757211
vt -0.008411583 -0.7757211
vt -0.77899 -0.7618017
vt 0.4624359 0.00984252
vt 0.4494887 0.1770072
vt 0.4494887 0.00984252
vt 0.4624359 0.1770072
vt 0.4624359 0.7818267
vt 0.4494887 0.7818267
vt 0.4549536 0.7700894
vt 1.2642 0.00984252
vt 0.00984252 0.1770072
vt 0.00984252 0.00984252
vt 1.2642 0.1770072
vt 0.5190443 0.3308808
vt 0.5060971 0.3308808
vt 0.5135794 0.3191435
vt 0.5135794 -0.1624579
vt 0.5060971 -0.1741952
vt 0.5190443 -0.1741952
vt 0.4624359 -0.6251412
vt 0.4549536 -0.6134038
vt 0.4494887 -0.6251412
vn -1 0 0
vn -0.7538733371871655 -0.46458313957866376 -0.46458314422449537
vn -0.44550914713224926 -0.7612736016224155 0.4711518898341929
vn -0.7538733371871655 -0.464583139578664 0.46458314422449515
vn -0.44550914713224926 -0.7612736016224153 -0.47115188983419326
vn -0.7538733371871655 0.46458313957866376 0.46458314422449537
vn -0.4455091455393162 -0.4711518834380549 0.7612736065131918
vn -0.4455091455393162 0.4711518834380546 0.761273606513192
vn -0.44550914713224926 0.7612736016224155 -0.4711518898341929
vn -0.44550914713224926 0.7612736016224153 0.47115188983419326
vn -0.7538733371871655 0.464583139578664 -0.46458314422449515
vn -0.4455091455393162 0.4711518834380549 -0.7612736065131918
vn -0.4455091455393162 -0.4711518834380546 -0.761273606513192
vn 0 -1 0
vn 0 0 1
vn 0 1 0
vn 0 0 -1
vn 0.44550914713224926 -0.7612736016224153 -0.47115188983419326
vn 0.7538733371871655 -0.464583139578664 0.46458314422449515
vn 0.44550914713224926 -0.7612736016224155 0.4711518898341929
vn 0.7538733371871655 -0.46458313957866376 -0.46458314422449537
vn 0.4455091455393162 -0.4711518834380549 0.7612736065131918
vn 0.4455091455393162 -0.4711518834380546 -0.761273606513192
vn 0.4455091455393162 0.4711518834380546 0.761273606513192
vn 0.7538733371871655 0.46458313957866376 0.46458314422449537
vn 0.44550914713224926 0.7612736016224153 0.47115188983419326
vn 0.7538733371871655 0.464583139578664 -0.46458314422449515
vn 0.44550914713224926 0.7612736016224155 -0.4711518898341929
vn 0.4455091455393162 0.4711518834380549 -0.7612736065131918
vn 1 0 0
usemtl material_0_0
f 1/1/1 2/2/1 3/3/1
f 2/2/1 1/1/1 4/4/1
f 5/5/2 6/6/3 7/7/4
f 6/6/3 5/5/2 8/8/5
f 9/9/6 10/10/7 11/11/8
f 10/10/7 9/9/6 7/12/4
f 12/13/9 9/14/6 13/15/10
f 9/14/6 12/13/9 14/16/11
f 15/17/12 5/18/2 14/19/11
f 5/18/2 15/17/12 16/20/13
f 17/21/14 18/22/14 19/23/14
f 18/22/14 17/21/14 20/24/14
f 6/25/3 10/26/7 7/27/4
f 16/28/13 8/29/5 5/30/2
f 21/31/15 22/32/15 23/33/15
f 22/32/15 21/31/15 24/34/15
f 9/35/6 11/36/8 13/37/10
f 25/33/16 26/38/16 27/32/16
f 26/38/16 25/33/16 28/39/16
f 15/40/12 14/41/11 12/42/9
f 29/43/17 30/24/17 31/22/17
f 30/24/17 29/43/17 32/44/17
f 33/45/18 34/46/19 35/47/20
f 34/46/19 33/45/18 36/48/21
f 35/49/20 10/50/7 6/51/3
f 10/50/7 35/49/20 37/52/22
f 16/53/13 33/54/18 8/55/5
f 33/54/18 16/53/13 38/56/23
f 34/57/19 39/58/24 37/59/22
f 39/58/24 34/57/19 40/60/25
f 39/61/24 13/62/10 11/63/8
f 13/62/10 39/61/24 41/64/26
f 42/65/27 41/66/26 40/67/25
f 41/66/26 42/65/27 43/68/28
f 12/69/9 44/70/29 15/71/12
f 44/70/29 12/69/9 43/72/28
f 38/73/23 42/74/27 36/75/21
f 42/74/27 38/73/23 44/76/29
f 38/77/23 36/78/21 33/79/18
f 45/80/30 46/81/30 47/82/30
f 46/81/30 45/80/30 48/83/30
f 34/84/19 37/85/22 35/86/20
f 41/87/26 39/88/24 40/89/25
f 44/90/29 43/91/28 42/92/27
