# SSTK version 0.8.0
# 51
mtllib original_51.mtl
o #ID176
v 0.227010 0.470683 0.612733
v 0.227010 0.488007 0.612733
v 0.225870 0.479345 0.612733
v 0.230354 0.462611 0.612733
v 0.230354 0.496078 0.612733
v 0.235672 0.455679 0.612733
v 0.235672 0.503010 0.612733
v 0.242604 0.450361 0.612733
v 0.242604 0.508328 0.612733
v 0.250676 0.447017 0.612733
v 0.250676 0.511672 0.612733
v 0.259338 0.445877 0.612733
v 0.259338 0.512812 0.612733
v 0.268000 0.447017 0.612733
v 0.268000 0.511672 0.612733
v 0.276071 0.450361 0.612733
v 0.276071 0.508328 0.612733
v 0.283003 0.455679 0.612733
v 0.283003 0.503010 0.612733
v 0.288321 0.462611 0.612733
v 0.288321 0.496078 0.612733
v 0.291665 0.470683 0.612733
v 0.291665 0.488007 0.612733
v 0.292805 0.479345 0.612733
v 0.227103 0.460734 0.609011
v 0.223384 0.469711 0.609011
v 0.233018 0.453025 0.609011
v 0.240727 0.447110 0.609011
v 0.249704 0.443391 0.609011
v 0.259338 0.442123 0.609011
v 0.268971 0.443391 0.609011
v 0.277949 0.447110 0.609011
v 0.285657 0.453025 0.609011
v 0.291573 0.460734 0.609011
v 0.295291 0.469711 0.609011
v 0.296560 0.479345 0.609011
v 0.295291 0.488978 0.609011
v 0.291573 0.497956 0.609011
v 0.285657 0.505664 0.609011
v 0.277949 0.511580 0.609011
v 0.268971 0.515298 0.609011
v 0.259338 0.516567 0.609011
v 0.249704 0.515298 0.609011
v 0.240727 0.511580 0.609011
v 0.233018 0.505664 0.609011
v 0.227103 0.497956 0.609011
v 0.223384 0.488978 0.609011
v 0.222116 0.479345 0.609011
v 0.223384 0.469711 0.597323
v 0.227103 0.460734 0.597323
v 0.233018 0.453025 0.597323
v 0.240727 0.447110 0.597323
v 0.249704 0.443391 0.597323
v 0.259338 0.442123 0.597323
v 0.268971 0.443391 0.597323
v 0.277949 0.447110 0.597323
v 0.285657 0.453025 0.597323
v 0.291573 0.460734 0.597323
v 0.295291 0.469711 0.597323
v 0.296560 0.479345 0.597323
v 0.295291 0.488978 0.597323
v 0.291573 0.497956 0.597323
v 0.285657 0.505664 0.597323
v 0.277949 0.511580 0.597323
v 0.268971 0.515298 0.597323
v 0.259338 0.516567 0.597323
v 0.249704 0.515298 0.597323
v 0.240727 0.511580 0.597323
v 0.233018 0.505664 0.597323
v 0.227103 0.497956 0.597323
v 0.223384 0.488978 0.597323
v 0.222116 0.479345 0.597323
vt 2.078243 3.051631
vt 2.078243 3.097441
vt 2.075227 3.074536
vt 2.087084 3.030287
vt 2.087084 3.118785
vt 2.101148 3.011958
vt 2.101148 3.137113
vt 2.119476 2.997894
vt 2.119476 3.151177
vt 2.14082 2.989054
vt 2.14082 3.160018
vt 2.163725 2.986038
vt 2.163725 3.163034
vt 2.18663 2.989054
vt 2.18663 3.160018
vt 2.207974 2.997894
vt 2.207974 3.151177
vt 2.226302 3.011958
vt 2.226302 3.137113
vt 2.240366 3.030287
vt 2.240366 3.118785
vt 2.249207 3.051631
vt 2.249207 3.097441
vt 2.252223 3.074536
vt 1.721749 2.587926
vt 1.728249 2.615254
vt 1.714526 2.612585
vt 1.734743 2.593083
vt 1.819215 2.248975
vt 1.819814 2.277058
vt 1.806961 2.271559
vt 1.830832 2.256752
vt 1.955645 1.995554
vt 1.949347 2.022928
vt 1.938233 2.014449
vt 1.965002 2.005939
vt 2.099762 1.931941
vt 2.085746 1.956284
vt 2.077592 1.944928
vt 2.10568 1.944607
vt 2.182733 2.125792
vt 2.161294 2.143942
vt 2.157473 2.130495
vt 2.184007 2.139713
vt 2.133578 2.523153
vt 2.107044 2.532371
vt 2.108318 2.51845
vt 2.129756 2.5366
vt 1.941854 2.942346
vt 1.955871 2.966688
vt 1.935937 2.955011
vt 1.964025 2.955333
vt 1.740749 3.257896
vt 1.747047 3.28527
vt 1.731391 3.268281
vt 1.758161 3.27679
vt 1.570919 3.406727
vt 1.57032 3.43481
vt 1.559303 3.414504
vt 1.583173 3.429311
vt 1.456805 3.382565
vt 1.450304 3.409892
vt 1.443811 3.387721
vt 1.464027 3.407223
vt 1.401656 3.20167
vt 1.390058 3.227254
vt 1.387917 3.204251
vt 1.404038 3.227254
vt 1.390058 2.895571
vt 1.401656 2.921155
vt 1.387917 2.918574
vt 1.404038 2.895571
vt 1.450304 2.509773
vt 1.456805 2.5371
vt 1.443811 2.531944
vt 1.464027 2.512442
vt 1.57032 2.115403
vt 1.570919 2.143486
vt 1.559303 2.135709
vt 1.583173 2.120902
vt 1.747047 1.805089
vt 1.740749 1.832463
vt 1.731391 1.822078
vt 1.758161 1.813569
vt 1.955871 1.688867
vt 1.941854 1.713209
vt 1.935937 1.700544
vt 1.964025 1.700222
vt 2.129756 1.848333
vt 2.108318 1.866483
vt 2.107044 1.852561
vt 2.133578 1.86178
vt 2.161294 2.240991
vt 2.182733 2.259141
vt 2.157473 2.254438
vt 2.184007 2.24522
vt 2.085746 2.699271
vt 2.099762 2.723614
vt 2.077592 2.710627
vt 2.10568 2.710948
vt 1.949347 3.067431
vt 1.955645 3.094805
vt 1.938233 3.07591
vt 1.965002 3.08442
vt 1.819814 3.273155
vt 1.819215 3.301239
vt 1.806961 3.278655
vt 1.830832 3.293462
vt 1.728249 3.304411
vt 1.721749 3.331738
vt 1.714526 3.30708
vt 1.734743 3.326582
vt 1.683028 3.176778
vt 1.67143 3.202362
vt 1.669049 3.176778
vt 1.68517 3.199781
vt 1.67143 2.920463
vt 1.683028 2.946047
vt 1.669049 2.946047
vt 1.68517 2.923044
vt 0.2874758 1.999632
vt 0.2565703 2.025326
vt 0.2565703 1.999632
vt 0.2874758 2.025326
vt 0.2874758 1.109154
vt 0.2565703 1.134848
vt 0.2565703 1.109154
vt 0.2874758 1.134848
vt 0.2874758 0.1422134
vt 0.2565703 0.1679075
vt 0.2565703 0.1422134
vt 0.2874758 0.1679075
vt 0.2874758 -0.8352943
vt 0.2565703 -0.8096001
vt 0.2565703 -0.8352943
vt 0.2874758 -0.8096001
vt 0.2874758 -1.756754
vt 0.2565703 -1.731059
vt 0.2565703 -1.756754
vt 0.2874758 -1.731059
vt -0.2874758 2.559368
vt -0.2565703 2.533674
vt -0.2565703 2.559368
vt -0.2874758 2.533674
vt -0.2874758 3.188442
vt -0.2565703 3.162748
vt -0.2565703 3.188442
vt -0.2874758 3.162748
vt -0.2874758 3.601104
vt -0.2565703 3.57541
vt -0.2565703 3.601104
vt -0.2874758 3.57541
vt -0.2565703 3.769233
vt -0.2874758 3.743538
vt -0.2565703 3.743538
vt -0.2874758 3.769233
vt -0.2565703 3.681369
vt -0.2874758 3.655675
vt -0.2565703 3.655675
vt -0.2874758 3.681369
vt -0.2565703 3.317808
vt -0.2874758 3.343503
vt -0.2874758 3.317808
vt -0.2565703 3.343503
vt -0.2565703 2.778657
vt -0.2874758 2.752963
vt -0.2565703 2.752963
vt -0.2874758 2.778657
vt -0.2565703 2.025326
vt -0.2874758 1.999632
vt -0.2565703 1.999632
vt -0.2874758 2.025326
vt -0.2565703 1.109154
vt -0.2874758 1.134848
vt -0.2874758 1.109154
vt -0.2565703 1.134848
vt -0.2874758 0.1679075
vt -0.2565703 0.1422134
vt -0.2565703 0.1679075
vt -0.2874758 0.1422134
vt -0.2874758 -0.8096001
vt -0.2565703 -0.8352943
vt -0.2565703 -0.8096001
vt -0.2874758 -0.8352943
vt -0.2874758 -1.731059
vt -0.2565703 -1.756754
vt -0.2565703 -1.731059
vt -0.2874758 -1.756754
vt 0.2874758 2.533674
vt 0.2565703 2.559368
vt 0.2565703 2.533674
vt 0.2874758 2.559368
vt 0.2874758 3.162748
vt 0.2565703 3.188442
vt 0.2565703 3.162748
vt 0.2874758 3.188442
vt 0.2874758 3.57541
vt 0.2565703 3.601104
vt 0.2565703 3.57541
vt 0.2874758 3.601104
vt 0.2874758 3.769233
vt 0.2565703 3.743538
vt 0.2874758 3.743538
vt 0.2565703 3.769233
vt 0.2874758 3.655675
vt 0.2565703 3.681369
vt 0.2565703 3.655675
vt 0.2874758 3.681369
vt 0.2874758 3.343503
vt 0.2565703 3.317808
vt 0.2874758 3.317808
vt 0.2565703 3.343503
vt 0.2874758 2.778657
vt 0.2565703 2.752963
vt 0.2874758 2.752963
vt 0.2565703 2.778657
vn -0.3932888860751505 -0.10538149626884581 0.9133556767951391
vn -0.3932888860751505 0.10538149626884581 0.9133556767951391
vn -0.4071626764500875 0 0.9133556563059109
vn -0.3526131883759667 -0.2035812932888621 0.9133556790244255
vn -0.3526131883759667 0.2035812932888621 0.9133556790244255
vn -0.28790748437823205 -0.28790748437823205 0.9133556595751713
vn -0.28790748437823205 0.28790748437823205 0.9133556595751713
vn -0.2035812932888621 -0.3526131883759667 0.9133556790244255
vn -0.2035812932888621 0.3526131883759667 0.9133556790244255
vn -0.10538149626884581 -0.3932888860751505 0.9133556767951391
vn -0.10538149626884581 0.3932888860751505 0.9133556767951391
vn 0 -0.4071626764500875 0.9133556563059109
vn 0 0.4071626764500875 0.9133556563059109
vn 0.10538149626884581 -0.3932888860751505 0.9133556767951391
vn 0.10538149626884581 0.3932888860751505 0.9133556767951391
vn 0.2035812932888621 -0.3526131883759667 0.9133556790244255
vn 0.2035812932888621 0.3526131883759667 0.9133556790244255
vn 0.28790748437823205 -0.28790748437823205 0.9133556595751713
vn 0.28790748437823205 0.28790748437823205 0.9133556595751713
vn 0.3526131883759667 -0.2035812932888621 0.9133556790244255
vn 0.3526131883759667 0.2035812932888621 0.9133556790244255
vn 0.3932888860751505 -0.10538149626884581 0.9133556767951391
vn 0.3932888860751505 0.10538149626884581 0.9133556767951391
vn 0.4071626764500875 0 0.9133556563059109
vn -0.803261184754165 -0.46376309119781245 0.37375829664367943
vn -0.8959214643669619 -0.24006139045215788 0.3737582888722807
vn -0.6558600167858206 -0.6558600167858206 0.3737583133034047
vn -0.46376309119781245 -0.803261184754165 0.37375829664367943
vn -0.24006139045215788 -0.8959214643669619 0.3737582888722807
vn 0 -0.9275261297763694 0.3737583157363454
vn 0.24006139045215788 -0.8959214643669619 0.3737582888722807
vn 0.46376309119781245 -0.803261184754165 0.37375829664367943
vn 0.6558600167858206 -0.6558600167858206 0.3737583133034047
vn 0.803261184754165 -0.46376309119781245 0.37375829664367943
vn 0.8959214643669619 -0.24006139045215788 0.3737582888722807
vn 0.9275261297763694 0 0.3737583157363454
vn 0.8959214643669619 0.24006139045215788 0.3737582888722807
vn 0.803261184754165 0.46376309119781245 0.37375829664367943
vn 0.6558600167858206 0.6558600167858206 0.3737583133034047
vn 0.46376309119781245 0.803261184754165 0.37375829664367943
vn 0.24006139045215788 0.8959214643669619 0.3737582888722807
vn 0 0.9275261297763694 0.3737583157363454
vn -0.24006139045215788 0.8959214643669619 0.3737582888722807
vn -0.46376309119781245 0.803261184754165 0.37375829664367943
vn -0.6558600167858206 0.6558600167858206 0.3737583133034047
vn -0.803261184754165 0.46376309119781245 0.37375829664367943
vn -0.8959214643669619 0.24006139045215788 0.3737582888722807
vn -0.9275261297763694 0 0.3737583157363454
vn -0.9659258358036645 -0.25881900959356163 0
vn -0.866025402838329 -0.5000000016387101 0
vn -0.7071067811865476 -0.7071067811865476 0
vn -0.5000000016387101 -0.866025402838329 0
vn -0.25881900959356163 -0.9659258358036645 0
vn 0 -1 0
vn 0.25881900959356163 -0.9659258358036645 0
vn 0.5000000016387101 -0.866025402838329 0
vn 0.7071067811865476 -0.7071067811865476 0
vn 0.866025402838329 -0.5000000016387101 0
vn 0.9659258358036645 -0.25881900959356163 0
vn 1 0 0
vn 0.9659258358036645 0.25881900959356163 0
vn 0.866025402838329 0.5000000016387101 0
vn 0.7071067811865476 0.7071067811865476 0
vn 0.5000000016387101 0.866025402838329 0
vn 0.25881900959356163 0.9659258358036645 0
vn 0 1 0
vn -0.25881900959356163 0.9659258358036645 0
vn -0.5000000016387101 0.866025402838329 0
vn -0.7071067811865476 0.7071067811865476 0
vn -0.866025402838329 0.5000000016387101 0
vn -0.9659258358036645 0.25881900959356163 0
vn -1 0 0
usemtl material_0_0
f 1/1/1 2/2/2 3/3/3
f 2/2/2 1/1/1 4/4/4
f 2/2/2 4/4/4 5/5/5
f 5/5/5 4/4/4 6/6/6
f 5/5/5 6/6/6 7/7/7
f 7/7/7 6/6/6 8/8/8
f 7/7/7 8/8/8 9/9/9
f 9/9/9 8/8/8 10/10/10
f 9/9/9 10/10/10 11/11/11
f 11/11/11 10/10/10 12/12/12
f 11/11/11 12/12/12 13/13/13
f 13/13/13 12/12/12 14/14/14
f 13/13/13 14/14/14 15/15/15
f 15/15/15 14/14/14 16/16/16
f 15/15/15 16/16/16 17/17/17
f 17/17/17 16/16/16 18/18/18
f 17/17/17 18/18/18 19/19/19
f 19/19/19 18/18/18 20/20/20
f 19/19/19 20/20/20 21/21/21
f 21/21/21 20/20/20 22/22/22
f 21/21/21 22/22/22 23/23/23
f 23/23/23 22/22/22 24/24/24
f 25/25/25 1/26/1 26/27/26
f 1/26/1 25/25/25 4/28/4
f 27/29/27 4/30/4 25/31/25
f 4/30/4 27/29/27 6/32/6
f 28/33/28 6/34/6 27/35/27
f 6/34/6 28/33/28 8/36/8
f 29/37/29 8/38/8 28/39/28
f 8/38/8 29/37/29 10/40/10
f 30/41/30 10/42/10 29/43/29
f 10/42/10 30/41/30 12/44/12
f 31/45/31 12/46/12 30/47/30
f 12/46/12 31/45/31 14/48/14
f 31/49/31 16/50/16 14/51/14
f 16/50/16 31/49/31 32/52/32
f 32/53/32 18/54/18 16/55/16
f 18/54/18 32/53/32 33/56/33
f 33/57/33 20/58/20 18/59/18
f 20/58/20 33/57/33 34/60/34
f 34/61/34 22/62/22 20/63/20
f 22/62/22 34/61/34 35/64/35
f 35/65/35 24/66/24 22/67/22
f 24/66/24 35/65/35 36/68/36
f 24/69/24 37/70/37 23/71/23
f 37/70/37 24/69/24 36/72/36
f 23/73/23 38/74/38 21/75/21
f 38/74/38 23/73/23 37/76/37
f 21/77/21 39/78/39 19/79/19
f 39/78/39 21/77/21 38/80/38
f 19/81/19 40/82/40 17/83/17
f 40/82/40 19/81/19 39/84/39
f 17/85/17 41/86/41 15/87/15
f 41/86/41 17/85/17 40/88/40
f 15/89/15 42/90/42 13/91/13
f 42/90/42 15/89/15 41/92/41
f 11/93/11 42/94/42 43/95/43
f 42/94/42 11/93/11 13/96/13
f 9/97/9 43/98/43 44/99/44
f 43/98/43 9/97/9 11/100/11
f 7/101/7 44/102/44 45/103/45
f 44/102/44 7/101/7 9/104/9
f 5/105/5 45/106/45 46/107/46
f 45/106/45 5/105/5 7/108/7
f 2/109/2 46/110/46 47/111/47
f 46/110/46 2/109/2 5/112/5
f 3/113/3 47/114/47 48/115/48
f 47/114/47 3/113/3 2/116/2
f 26/117/26 3/118/3 48/119/48
f 3/118/3 26/117/26 1/120/1
f 25/121/25 49/122/49 50/123/50
f 49/122/49 25/121/25 26/124/26
f 27/125/27 50/126/50 51/127/51
f 50/126/50 27/125/27 25/128/25
f 28/129/28 51/130/51 52/131/52
f 51/130/51 28/129/28 27/132/27
f 29/133/29 52/134/52 53/135/53
f 52/134/52 29/133/29 28/136/28
f 30/137/30 53/138/53 54/139/54
f 53/138/53 30/137/30 29/140/29
f 31/141/31 54/142/54 55/143/55
f 54/142/54 31/141/31 30/144/30
f 32/145/32 55/146/55 56/147/56
f 55/146/55 32/145/32 31/148/31
f 33/149/33 56/150/56 57/151/57
f 56/150/56 33/149/33 32/152/32
f 58/153/58 33/154/33 57/155/57
f 33/154/33 58/153/58 34/156/34
f 59/157/59 34/158/34 58/159/58
f 34/158/34 59/157/59 35/160/35
f 59/161/59 36/162/36 35/163/35
f 36/162/36 59/161/59 60/164/60
f 61/165/61 36/166/36 60/167/60
f 36/166/36 61/165/61 37/168/37
f 62/169/62 37/170/37 61/171/61
f 37/170/37 62/169/62 38/172/38
f 62/173/62 39/174/39 38/175/38
f 39/174/39 62/173/62 63/176/63
f 40/177/40 63/178/63 64/179/64
f 63/178/63 40/177/40 39/180/39
f 41/181/41 64/182/64 65/183/65
f 64/182/64 41/181/41 40/184/40
f 42/185/42 65/186/65 66/187/66
f 65/186/65 42/185/42 41/188/41
f 43/189/43 66/190/66 67/191/67
f 66/190/66 43/189/43 42/192/42
f 44/193/44 67/194/67 68/195/68
f 67/194/67 44/193/44 43/196/43
f 45/197/45 68/198/68 69/199/69
f 68/198/68 45/197/45 44/200/44
f 45/201/45 70/202/70 46/203/46
f 70/202/70 45/201/45 69/204/69
f 47/205/47 70/206/70 71/207/71
f 70/206/70 47/205/47 46/208/46
f 47/209/47 72/210/72 48/211/48
f 72/210/72 47/209/47 71/212/71
f 48/213/48 49/214/49 26/215/26
f 49/214/49 48/213/48 72/216/72
