# SSTK version 0.8.0
# 36
mtllib original-36.mtl
o #ID304
v 0.074349 0.434175 0.593601
v -0.420784 0.434175 0.577261
v -0.420784 0.434175 0.593601
v 0.074349 0.434175 0.577261
v -0.420784 0.434175 0.577261
v -0.420784 0.595919 0.593601
v -0.420784 0.434175 0.593601
v -0.420784 0.595919 0.577261
v 0.078072 0.430452 0.597323
v -0.420784 0.434175 0.593601
v -0.424507 0.430452 0.597323
v 0.074349 0.434175 0.593601
v 0.074349 0.595919 0.577261
v 0.074349 0.434175 0.593601
v 0.074349 0.595919 0.593601
v 0.074349 0.434175 0.577261
v 0.074349 0.595919 0.577261
v -0.420784 0.595919 0.593601
v -0.420784 0.595919 0.577261
v 0.074349 0.595919 0.593601
v -0.424507 0.599641 0.597323
v -0.420784 0.595919 0.593601
v 0.074349 0.595919 0.593601
v 0.078072 0.599641 0.597323
vn 0 1 0
vn 1 0 0
vn -0.40824828774220784 0.40824828774220767 0.8164965836493814
vn 0.40824828774220784 0.40824828774220767 0.8164965836493814
vn -1 0 0
vn 0 -1 0
vn 0.40824828774220784 -0.408248287742208 0.8164965836493812
vn -0.40824828774220784 -0.408248287742208 0.8164965836493812
usemtl material_0_0
f 1//1 2//1 3//1
f 2//1 1//1 4//1
f 5//2 6//2 7//2
f 6//2 5//2 8//2
f 9//3 10//4 11//4
f 10//4 9//3 12//3
f 13//5 14//5 15//5
f 14//5 13//5 16//5
f 17//6 18//6 19//6
f 18//6 17//6 20//6
f 10//4 21//7 11//4
f 21//7 10//4 22//7
f 23//8 9//3 24//8
f 9//3 23//8 12//3
f 22//7 24//8 21//7
f 24//8 22//7 23//8
