# SSTK version 0.8.0
# 37
mtllib original-37.mtl
o #ID310
v 0.015017 -0.483548 0.051803
v -0.463917 -0.483548 0.026767
v -0.463917 -0.483548 0.051803
v 0.015017 -0.483548 0.026767
v 0.015017 -0.483548 0.051803
v -0.463917 -0.497878 0.051803
v 0.015017 -0.497878 0.051803
v -0.463917 -0.483548 0.051803
v -0.463917 -0.497878 0.026767
v 0.015017 -0.483548 0.026767
v 0.015017 -0.497878 0.026767
v -0.463917 -0.483548 0.026767
v -0.463917 -0.497878 0.051803
v -0.463917 -0.483548 0.076839
v -0.463917 -0.497878 0.076839
v -0.463917 -0.483548 0.051803
v 0.015017 -0.483548 0.051803
v 0.015017 -0.497878 0.076839
v 0.015017 -0.483548 0.076839
v 0.015017 -0.497878 0.051803
v 0.015017 -0.483548 0.001731
v 0.015017 -0.497878 0.026767
v 0.015017 -0.483548 0.026767
v 0.015017 -0.497878 0.001731
v -0.463917 -0.497878 0.001731
v -0.463917 -0.483548 0.026767
v -0.463917 -0.497878 0.026767
v -0.463917 -0.483548 0.001731
v -0.463917 -0.497878 0.076839
v 0.015017 -0.483548 0.076839
v 0.015017 -0.497878 0.076839
v -0.463917 -0.483548 0.076839
v 0.015017 -0.483548 0.001731
v -0.463917 -0.497878 0.001731
v 0.015017 -0.497878 0.001731
v -0.463917 -0.483548 0.001731
v 0.015017 -0.483548 0.101874
v -0.463917 -0.483548 0.076839
v -0.463917 -0.483548 0.101874
v 0.015017 -0.483548 0.076839
v 0.015017 -0.483548 0.101874
v -0.463917 -0.497878 0.101874
v 0.015017 -0.497878 0.101874
v -0.463917 -0.483548 0.101874
v -0.463917 -0.497878 0.101874
v -0.463917 -0.483548 0.126910
v -0.463917 -0.497878 0.126910
v -0.463917 -0.483548 0.101874
v 0.015017 -0.483548 0.101874
v 0.015017 -0.497878 0.126910
v 0.015017 -0.483548 0.126910
v 0.015017 -0.497878 0.101874
v -0.463917 -0.497878 0.126910
v 0.015017 -0.483548 0.126910
v 0.015017 -0.497878 0.126910
v -0.463917 -0.483548 0.126910
v 0.015017 -0.483548 0.151946
v -0.463917 -0.483548 0.126910
v -0.463917 -0.483548 0.151946
v 0.015017 -0.483548 0.126910
v 0.015017 -0.483548 0.151946
v -0.463917 -0.497878 0.151946
v 0.015017 -0.497878 0.151946
v -0.463917 -0.483548 0.151946
v -0.463917 -0.497878 0.151946
v -0.463917 -0.483548 0.176982
v -0.463917 -0.497878 0.176982
v -0.463917 -0.483548 0.151946
v 0.015017 -0.483548 0.151946
v 0.015017 -0.497878 0.176982
v 0.015017 -0.483548 0.176982
v 0.015017 -0.497878 0.151946
v -0.463917 -0.497878 0.176982
v 0.015017 -0.483548 0.176982
v 0.015017 -0.497878 0.176982
v -0.463917 -0.483548 0.176982
v 0.015017 -0.483548 0.202017
v -0.463917 -0.483548 0.176982
v -0.463917 -0.483548 0.202017
v 0.015017 -0.483548 0.176982
v 0.015017 -0.483548 0.202017
v -0.463917 -0.497878 0.202017
v 0.015017 -0.497878 0.202017
v -0.463917 -0.483548 0.202017
v -0.463917 -0.497878 0.202017
v -0.463917 -0.483548 0.227053
v -0.463917 -0.497878 0.227053
v -0.463917 -0.483548 0.202017
v 0.015017 -0.483548 0.202017
v 0.015017 -0.497878 0.227053
v 0.015017 -0.483548 0.227053
v 0.015017 -0.497878 0.202017
v -0.463917 -0.497878 0.227053
v 0.015017 -0.483548 0.227053
v 0.015017 -0.497878 0.227053
v -0.463917 -0.483548 0.227053
v 0.015017 -0.483548 0.252089
v -0.463917 -0.483548 0.227053
v -0.463917 -0.483548 0.252089
v 0.015017 -0.483548 0.227053
v 0.015017 -0.483548 0.252089
v -0.463917 -0.497878 0.252089
v 0.015017 -0.497878 0.252089
v -0.463917 -0.483548 0.252089
v -0.463917 -0.497878 0.252089
v -0.463917 -0.483548 0.277125
v -0.463917 -0.497878 0.277125
v -0.463917 -0.483548 0.252089
v 0.015017 -0.483548 0.252089
v 0.015017 -0.497878 0.277125
v 0.015017 -0.483548 0.277125
v 0.015017 -0.497878 0.252089
v -0.463917 -0.497878 0.277125
v 0.015017 -0.483548 0.277125
v 0.015017 -0.497878 0.277125
v -0.463917 -0.483548 0.277125
v 0.015017 -0.483548 0.302161
v -0.463917 -0.483548 0.277125
v -0.463917 -0.483548 0.302161
v 0.015017 -0.483548 0.277125
v 0.015017 -0.483548 0.302161
v -0.463917 -0.497878 0.302161
v 0.015017 -0.497878 0.302161
v -0.463917 -0.483548 0.302161
v -0.463917 -0.497878 0.302161
v -0.463917 -0.483548 0.327196
v -0.463917 -0.497878 0.327196
v -0.463917 -0.483548 0.302161
v 0.015017 -0.483548 0.302161
v 0.015017 -0.497878 0.327196
v 0.015017 -0.483548 0.327196
v 0.015017 -0.497878 0.302161
v -0.463917 -0.497878 0.327196
v 0.015017 -0.483548 0.327196
v 0.015017 -0.497878 0.327196
v -0.463917 -0.483548 0.327196
v 0.015017 -0.483548 0.352232
v -0.463917 -0.483548 0.327196
v -0.463917 -0.483548 0.352232
v 0.015017 -0.483548 0.327196
v 0.015017 -0.483548 0.352232
v -0.463917 -0.497878 0.352232
v 0.015017 -0.497878 0.352232
v -0.463917 -0.483548 0.352232
v -0.463917 -0.497878 0.352232
v -0.463917 -0.483548 0.377268
v -0.463917 -0.497878 0.377268
v -0.463917 -0.483548 0.352232
v 0.015017 -0.483548 0.352232
v 0.015017 -0.497878 0.377268
v 0.015017 -0.483548 0.377268
v 0.015017 -0.497878 0.352232
v -0.463917 -0.497878 0.377268
v 0.015017 -0.483548 0.377268
v 0.015017 -0.497878 0.377268
v -0.463917 -0.483548 0.377268
v 0.015017 -0.483548 0.402304
v -0.463917 -0.483548 0.377268
v -0.463917 -0.483548 0.402304
v 0.015017 -0.483548 0.377268
v 0.015017 -0.483548 0.402304
v -0.463917 -0.497878 0.402304
v 0.015017 -0.497878 0.402304
v -0.463917 -0.483548 0.402304
v -0.463917 -0.497878 0.402304
v -0.463917 -0.483548 0.427339
v -0.463917 -0.497878 0.427339
v -0.463917 -0.483548 0.402304
v 0.015017 -0.483548 0.402304
v 0.015017 -0.497878 0.427339
v 0.015017 -0.483548 0.427339
v 0.015017 -0.497878 0.402304
v -0.463917 -0.497878 0.427339
v 0.015017 -0.483548 0.427339
v 0.015017 -0.497878 0.427339
v -0.463917 -0.483548 0.427339
v 0.015017 -0.483548 0.452375
v -0.463917 -0.483548 0.427339
v -0.463917 -0.483548 0.452375
v 0.015017 -0.483548 0.427339
v 0.015017 -0.483548 0.452375
v -0.463917 -0.497878 0.452375
v 0.015017 -0.497878 0.452375
v -0.463917 -0.483548 0.452375
v -0.463917 -0.497878 0.452375
v -0.463917 -0.483548 0.477411
v -0.463917 -0.497878 0.477411
v -0.463917 -0.483548 0.452375
v 0.015017 -0.483548 0.452375
v 0.015017 -0.497878 0.477411
v 0.015017 -0.483548 0.477411
v 0.015017 -0.497878 0.452375
v -0.463917 -0.497878 0.477411
v 0.015017 -0.483548 0.477411
v 0.015017 -0.497878 0.477411
v -0.463917 -0.483548 0.477411
v 0.015017 -0.483548 0.502447
v -0.463917 -0.483548 0.477411
v -0.463917 -0.483548 0.502447
v 0.015017 -0.483548 0.477411
v 0.015017 -0.483548 0.502447
v -0.463917 -0.497878 0.502447
v 0.015017 -0.497878 0.502447
v -0.463917 -0.483548 0.502447
v -0.463917 -0.497878 0.502447
v -0.463917 -0.483548 0.527483
v -0.463917 -0.497878 0.527483
v -0.463917 -0.483548 0.502447
v 0.015017 -0.483548 0.502447
v 0.015017 -0.497878 0.527483
v 0.015017 -0.483548 0.527483
v 0.015017 -0.497878 0.502447
v -0.463917 -0.497878 0.527483
v 0.015017 -0.483548 0.527483
v 0.015017 -0.497878 0.527483
v -0.463917 -0.483548 0.527483
vn 0 1 0
vn 0 0 1
vn 0 0 -1
vn 1 0 0
vn -1 0 0
usemtl material_0_0
f 1//1 2//1 3//1
f 2//1 1//1 4//1
f 5//2 6//2 7//2
f 6//2 5//2 8//2
f 9//3 10//3 11//3
f 10//3 9//3 12//3
f 13//4 14//4 15//4
f 14//4 13//4 16//4
f 17//5 18//5 19//5
f 18//5 17//5 20//5
f 21//5 22//5 23//5
f 22//5 21//5 24//5
f 25//4 26//4 27//4
f 26//4 25//4 28//4
f 29//3 30//3 31//3
f 30//3 29//3 32//3
f 33//2 34//2 35//2
f 34//2 33//2 36//2
f 37//1 38//1 39//1
f 38//1 37//1 40//1
f 41//2 42//2 43//2
f 42//2 41//2 44//2
f 45//4 46//4 47//4
f 46//4 45//4 48//4
f 49//5 50//5 51//5
f 50//5 49//5 52//5
f 53//3 54//3 55//3
f 54//3 53//3 56//3
f 57//1 58//1 59//1
f 58//1 57//1 60//1
f 61//2 62//2 63//2
f 62//2 61//2 64//2
f 65//4 66//4 67//4
f 66//4 65//4 68//4
f 69//5 70//5 71//5
f 70//5 69//5 72//5
f 73//3 74//3 75//3
f 74//3 73//3 76//3
f 77//1 78//1 79//1
f 78//1 77//1 80//1
f 81//2 82//2 83//2
f 82//2 81//2 84//2
f 85//4 86//4 87//4
f 86//4 85//4 88//4
f 89//5 90//5 91//5
f 90//5 89//5 92//5
f 93//3 94//3 95//3
f 94//3 93//3 96//3
f 97//1 98//1 99//1
f 98//1 97//1 100//1
f 101//2 102//2 103//2
f 102//2 101//2 104//2
f 105//4 106//4 107//4
f 106//4 105//4 108//4
f 109//5 110//5 111//5
f 110//5 109//5 112//5
f 113//3 114//3 115//3
f 114//3 113//3 116//3
f 117//1 118//1 119//1
f 118//1 117//1 120//1
f 121//2 122//2 123//2
f 122//2 121//2 124//2
f 125//4 126//4 127//4
f 126//4 125//4 128//4
f 129//5 130//5 131//5
f 130//5 129//5 132//5
f 133//3 134//3 135//3
f 134//3 133//3 136//3
f 137//1 138//1 139//1
f 138//1 137//1 140//1
f 141//2 142//2 143//2
f 142//2 141//2 144//2
f 145//4 146//4 147//4
f 146//4 145//4 148//4
f 149//5 150//5 151//5
f 150//5 149//5 152//5
f 153//3 154//3 155//3
f 154//3 153//3 156//3
f 157//1 158//1 159//1
f 158//1 157//1 160//1
f 161//2 162//2 163//2
f 162//2 161//2 164//2
f 165//4 166//4 167//4
f 166//4 165//4 168//4
f 169//5 170//5 171//5
f 170//5 169//5 172//5
f 173//3 174//3 175//3
f 174//3 173//3 176//3
f 177//1 178//1 179//1
f 178//1 177//1 180//1
f 181//2 182//2 183//2
f 182//2 181//2 184//2
f 185//4 186//4 187//4
f 186//4 185//4 188//4
f 189//5 190//5 191//5
f 190//5 189//5 192//5
f 193//3 194//3 195//3
f 194//3 193//3 196//3
f 197//1 198//1 199//1
f 198//1 197//1 200//1
f 201//2 202//2 203//2
f 202//2 201//2 204//2
f 205//4 206//4 207//4
f 206//4 205//4 208//4
f 209//5 210//5 211//5
f 210//5 209//5 212//5
f 213//3 214//3 215//3
f 214//3 213//3 216//3
